<?xml version="1.0" encoding="UTF-8" standalone="no"?>
<!DOCTYPE svg  PUBLIC '-//W3C//DTD SVG 1.1//EN'  'http://www.w3.org/Graphics/SVG/1.1/DTD/svg11.dtd'>
<svg xmlns="http://www.w3.org/2000/svg">
<defs>
<font id="MetricHPE-Light" horiz-adv-x="520">
<font-face underline-position="-40" font-weight="300" descent="-200" panose-1="2 11 3 3 3 2 2 6 2 3" units-per-em="1000" unicode-range="U+0020-00FE" bbox="-14 -179 802 809" x-height="444" underline-thickness="30" font-family="MetricHPE Light" ascent="800" cap-height="614"/>
<missing-glyph horiz-adv-x="1000"/>
<glyph glyph-name=".notdef" horiz-adv-x="1000"/>
<glyph glyph-name=".null" horiz-adv-x="0"/>
<glyph glyph-name="nonmarkingreturn" horiz-adv-x="333"/>
<glyph glyph-name="space" horiz-adv-x="221" unicode=" "/>
<glyph glyph-name="exclam" horiz-adv-x="206" unicode="!" d="M85 192l-10 422h56l-10 -422h-36zM65 35q0 16 11 27.5t27 11.5q15 0 26 -11.5t11 -27.5t-11 -27t-26 -11q-16 0 -27 11t-11 27z"/>
<glyph glyph-name="quotedbl" horiz-adv-x="221" unicode='&quot;' d="M136 418v196h45v-196h-45zM40 418v196h45v-196h-45z"/>
<glyph glyph-name="numbersign" horiz-adv-x="549" unicode="#" d="M214 383l-37 -152h157l36 152h-156zM481 231l-7 -40h-105l-45 -191h-45l45 191h-156l-46 -191h-43l45 191h-97l9 40h98l36 152h-103l8 40h104l46 191h44l-46 -191h157l46 191h44l-46 -191h98l-9 -40h-98l-36 -152h102z"/>
<glyph glyph-name="dollar" d="M235 -85v98q-99 8 -154 56v57q74 -67 178 -67q61 0 97 28t36 77q0 40 -22.5 63t-79.5 48l-84 35q-57 23 -91 55.5t-34 91.5q0 63 43.5 100t110.5 43v90h45v-90q81 -6 135 -47v-55q-66 57 -159 57q-56 0 -91 -25t-35 -73q0 -39 23.5 -60.5t74.5 -43.5l90 -37 q64 -28 93 -63t29 -89q0 -63 -44.5 -104t-115.5 -46v-99h-45z" unicode="$"/>
<glyph glyph-name="percent" d="M40 0l398 614h43l-398 -614h-43zM464 114q0 35 -24.5 59t-59.5 24t-59.5 -24t-24.5 -59t24.5 -59.5t59.5 -24.5t59.5 24.5t24.5 59.5zM502 114q0 -51 -35.5 -87t-86.5 -36t-86.5 36t-35.5 87t35.5 86.5t86.5 35.5t86.5 -35.5t35.5 -86.5zM57 500q0 -34 24.5 -58.5 t58.5 -24.5q35 0 60 24.5t25 58.5q0 35 -25 59.5t-60 24.5t-59 -24.5t-24 -59.5zM19 500q0 51 35.5 87t85.5 36q51 0 87 -36t36 -87t-36 -86.5t-87 -35.5q-50 0 -85.5 35.5t-35.5 86.5z" unicode="%"/>
<glyph glyph-name="ampersand" horiz-adv-x="569" unicode="&amp;" d="M231 35q96 0 157 69l-201 213q-44 -14 -72.5 -53t-28.5 -86q0 -62 41 -102.5t104 -40.5zM263 579q-49 0 -80 -28.5t-31 -78.5q0 -24 12 -48t23 -37t39 -43l189 -201q39 66 42 160h47q-3 -109 -58 -193l104 -110h-64l-69 73q-75 -82 -186 -82q-84 0 -138.5 53t-54.5 134 q0 57 33 103.5t86 67.5q-53 63 -53 123q0 68 45 109.5t114 41.5q76 0 131 -40v-54q-64 50 -131 50z"/>
<glyph glyph-name="quotesingle" horiz-adv-x="126" unicode="&apos;" d="M40 418v196h46v-196h-46z"/>
<glyph glyph-name="parenleft" horiz-adv-x="325" unicode="(" d="M30 283q0 137 72.5 236t195.5 131v-50q-93 -23 -156 -108.5t-63 -208.5t63 -208.5t156 -108.5v-50q-123 32 -195.5 131t-72.5 236z"/>
<glyph glyph-name="parenright" horiz-adv-x="325" unicode=")" d="M295 283q0 -137 -72.5 -236t-195.5 -131v50q93 23 156 108.5t63 208.5t-63 208.5t-156 108.5v50q123 -32 195.5 -131t72.5 -236z"/>
<glyph glyph-name="asterisk" horiz-adv-x="315" unicode="*" d="M125 513l-94 54l17 28l93 -54v108h33v-108l93 54l16 -28l-94 -54l94 -54l-16 -28l-93 54v-107h-33v107l-93 -54l-17 28z"/>
<glyph glyph-name="plus" d="M238 480h43v-164h165v-43h-165v-164h-43v164h-164v43h164v164z" unicode="+"/>
<glyph glyph-name="comma" horiz-adv-x="141" unicode="," d="M9 -101l54 100q-30 6 -30 36q0 16 10.5 27t26.5 11q17 0 27.5 -11t10.5 -29t-15 -44l-48 -90h-36z"/>
<glyph glyph-name="hyphen" horiz-adv-x="321" unicode="-" d="M40 237v46h241v-46h-241z"/>
<glyph glyph-name="period" horiz-adv-x="141" unicode="." d="M33 35q0 16 11 27.5t26 11.5q16 0 27 -11.5t11 -27.5t-11 -27t-27 -11q-15 0 -26 11t-11 27z"/>
<glyph glyph-name="slash" horiz-adv-x="306" unicode="/" d="M5 -84l248 734h48l-248 -734h-48z"/>
<glyph glyph-name="zero" d="M260 576q-81 0 -127.5 -74.5t-46.5 -194.5t46.5 -194.5t127.5 -74.5t127.5 74.5t46.5 194.5t-46.5 194.5t-127.5 74.5zM260 -9q-101 0 -162.5 87.5t-61.5 228.5t61.5 228.5t162.5 87.5t162.5 -87.5t61.5 -228.5t-61.5 -228.5t-162.5 -87.5z" unicode="0"/>
<glyph glyph-name="one" d="M69 0v47h188v507l-182 -94v52l201 103h31v-568h163v-47h-401z" unicode="1"/>
<glyph glyph-name="two" d="M147 47h301v-47h-395v4l199 233q72 85 91 117q29 50 29 101q0 55 -34 88t-96 33q-94 0 -175 -85v55q73 77 177 77q83 0 130 -45t47 -122q0 -33 -9 -63.5t-31.5 -64.5t-39.5 -54.5t-53 -62.5z" unicode="2"/>
<glyph glyph-name="three" d="M60 567v47h378v-4l-186 -241q81 -5 135.5 -55.5t54.5 -130.5q0 -85 -61.5 -138.5t-150.5 -53.5q-101 0 -171 51v59q67 -64 169 -64q71 0 119 40t48 106q0 69 -53.5 109.5t-137.5 40.5q-18 0 -27 -1v4l176 231h-293z" unicode="3"/>
<glyph glyph-name="four" d="M300 614l-193 -418h219v152h49v-152h113v-46h-113v-150h-49v150h-290v4l213 460h51z" unicode="4"/>
<glyph glyph-name="five" d="M235 377q94 0 157 -52.5t63 -139.5t-63 -140.5t-158 -53.5q-100 0 -170 50v60q67 -64 168 -64q74 0 124 40.5t50 107.5q0 66 -50.5 106.5t-123.5 40.5q-30 0 -57 -5t-39.5 -9.5t-40.5 -15.5v312h325v-47h-280v-205q39 15 95 15z" unicode="5"/>
<glyph glyph-name="six" d="M416 198q0 68 -45.5 114.5t-111.5 46.5q-65 0 -110 -46.5t-45 -114.5t45 -114.5t110 -46.5q66 0 111.5 46.5t45.5 114.5zM259 -9q-86 0 -144.5 59.5t-58.5 147.5q0 65 45 146l154 270h53l-138 -240q38 29 91 29q86 0 144 -59t58 -146q0 -88 -58.5 -147.5t-145.5 -59.5z " unicode="6"/>
<glyph glyph-name="seven" d="M483 610l-279 -610h-51l260 567h-361v47h431v-4z" unicode="7"/>
<glyph glyph-name="eight" d="M260 -9q-91 0 -150.5 50.5t-59.5 126.5q0 57 35.5 100.5t93.5 58.5q-47 17 -75 54t-28 84q0 68 52 113t132 45q81 0 133 -45t52 -113q0 -47 -28 -84t-76 -54q58 -15 94 -58.5t36 -100.5q0 -77 -60 -127t-151 -50zM260 349q60 0 98 33t38 82t-38 82t-98 33 q-59 0 -97.5 -33t-38.5 -82q0 -48 38.5 -81.5t97.5 -33.5zM260 35q71 0 116.5 38.5t45.5 96.5t-45.5 96.5t-116.5 38.5q-70 0 -115.5 -39t-45.5 -96t45.5 -96t115.5 -39z" unicode="8"/>
<glyph glyph-name="nine" d="M103 416q0 -68 45.5 -114.5t111.5 -46.5q65 0 110.5 47t45.5 114q0 68 -45.5 114.5t-110.5 46.5q-66 0 -111.5 -46.5t-45.5 -114.5zM260 623q86 0 144.5 -59.5t58.5 -147.5q0 -65 -45 -146l-154 -270h-53l138 240q-38 -29 -91 -29q-86 0 -144 59t-58 146q0 88 59 147.5 t145 59.5z" unicode="9"/>
<glyph glyph-name="colon" horiz-adv-x="141" unicode=":" d="M33 364q0 16 11 27.5t26 11.5q16 0 27 -11.5t11 -27.5t-11 -27t-27 -11q-15 0 -26 11t-11 27zM33 35q0 16 11 27.5t26 11.5q16 0 27 -11.5t11 -27.5t-11 -27t-27 -11q-15 0 -26 11t-11 27z"/>
<glyph glyph-name="semicolon" horiz-adv-x="141" unicode=";" d="M33 364q0 16 11 27.5t26 11.5q16 0 27 -11.5t11 -27.5t-11 -27t-27 -11q-15 0 -26 11t-11 27zM9 -101l54 100q-30 6 -30 36q0 16 10.5 27t26.5 11q17 0 27.5 -11t10.5 -29t-15 -44l-48 -90h-36z"/>
<glyph glyph-name="less" d="M122 269v47l275 150v-48l-232 -125l232 -125v-49z" unicode="&lt;"/>
<glyph glyph-name="equal" d="M74 338v42h372v-42h-372zM74 210v42h372v-42h-372z" unicode="="/>
<glyph glyph-name="greater" d="M397 316v-47l-275 -150v49l232 125l-232 125v48z" unicode="&gt;"/>
<glyph glyph-name="question" horiz-adv-x="414" unicode="?" d="M167 35q0 16 11 27.5t26 11.5q16 0 27 -11.5t11 -27.5t-11 -27t-27 -11q-15 0 -26 11t-11 27zM235 304q5 6 23 25t26.5 29.5t20 28t17 34.5t5.5 36q0 55 -33.5 86.5t-95.5 31.5q-93 0 -175 -91v56q31 36 78 59.5t99 23.5q83 0 130 -45t47 -121q0 -11 -2 -21.5t-4 -19.5 t-7.5 -20l-9 -18t-12 -18.5t-12 -17t-14 -17t-14 -15.5t-15 -16.5t-14.5 -15.5q-42 -45 -43 -85h-48q2 33 14 56.5t39 54.5z"/>
<glyph glyph-name="at" horiz-adv-x="774" unicode="@" d="M461 140l24 139q-25 67 -85 67t-98.5 -52t-38.5 -118q0 -49 24.5 -77.5t65.5 -28.5q60 0 108 70zM548 380l-45 -255q-2 -14 -2 -18q0 -42 50 -42q62 0 103 54t41 149q0 111 -79.5 182t-205.5 71q-146 0 -238 -96t-92 -239q0 -77 28 -137t76 -94.5t105.5 -52t121.5 -17.5 q116 0 210 45v-41q-98 -43 -210 -43q-74 0 -139.5 20t-119 60t-84.5 107t-31 153q0 158 104.5 267t268.5 109q145 0 236 -83.5t91 -210.5q0 -115 -56 -178.5t-135 -63.5q-35 0 -60 16.5t-30 45.5q-18 -25 -48 -42t-61 -17q-62 0 -96 41t-34 105q0 85 51 149t130 64 q34 0 59.5 -17t37.5 -40l9 49h44z"/>
<glyph glyph-name="A" horiz-adv-x="579" unicode="A" d="M289 548l-118 -300h236zM266 614h47l243 -614h-51l-80 202h-272l-79 -202h-51z"/>
<glyph glyph-name="B" horiz-adv-x="523" unicode="B" d="M129 294v-248h160q71 0 108.5 33.5t37.5 90.5t-37.5 90.5t-108.5 33.5h-160zM129 338h138q146 0 146 115t-146 115h-138v-230zM362 318q56 -10 90 -51.5t34 -97.5q0 -81 -53 -125t-147 -44h-207v614h188q94 0 145 -41t51 -118q0 -107 -101 -137z"/>
<glyph glyph-name="C" horiz-adv-x="535" unicode="C" d="M39 307q0 143 79.5 229.5t198.5 86.5q102 0 168 -53v-56q-71 61 -167 61q-100 0 -163.5 -72.5t-63.5 -195.5t63.5 -195.5t163.5 -72.5q95 0 167 62v-57q-66 -53 -168 -53q-119 0 -198.5 86.5t-79.5 229.5z"/>
<glyph glyph-name="D" horiz-adv-x="602" unicode="D" d="M79 0v614h187q134 0 216 -83.5t82 -223.5t-82 -223.5t-216 -83.5h-187zM130 47h136q113 0 179.5 71t66.5 189t-66.5 189t-179.5 71h-136v-520z"/>
<glyph glyph-name="E" horiz-adv-x="515" unicode="E" d="M79 614h381v-47h-331v-227h300v-47h-300v-246h331v-47h-381v614z"/>
<glyph glyph-name="F" horiz-adv-x="473" unicode="F" d="M130 0h-51v614h356v-47h-305v-234h289v-46h-289v-287z"/>
<glyph glyph-name="G" horiz-adv-x="587" unicode="G" d="M319 38q98 0 163 55v175h-155v43h202v-234q-73 -86 -211 -86q-122 0 -200.5 86.5t-78.5 229.5q0 144 80.5 230t204.5 86q108 0 180 -59v-57q-74 68 -180 68q-104 0 -168.5 -72.5t-64.5 -195.5t63 -196t165 -73z"/>
<glyph glyph-name="H" horiz-adv-x="649" unicode="H" d="M519 614h51v-614h-51v293h-389v-293h-51v614h51v-274h389v274z"/>
<glyph glyph-name="I" horiz-adv-x="209" unicode="I" d="M130 614v-614h-51v614h51z"/>
<glyph glyph-name="J" horiz-adv-x="377" unicode="J" d="M27 29v54q57 -44 116 -44q60 0 88 37.5t28 120.5v417h51v-419q0 -204 -167 -204q-66 0 -116 38z"/>
<glyph glyph-name="K" horiz-adv-x="534" unicode="K" d="M130 614v-280l310 280h67l-328 -295l336 -319h-67l-318 298v-298h-51v614h51z"/>
<glyph glyph-name="L" horiz-adv-x="503" unicode="L" d="M79 0v614h51v-567h333v-47h-384z"/>
<glyph glyph-name="M" horiz-adv-x="724" unicode="M" d="M364 141h-3l-232 376v-517h-50v614h45l239 -390l240 390h42v-614h-50v517z"/>
<glyph glyph-name="N" horiz-adv-x="616" unicode="N" d="M537 614v-614h-34l-375 533v-533h-49v614h49l360 -512v512h49z"/>
<glyph glyph-name="O" horiz-adv-x="620" unicode="O" d="M530 307q0 119 -61 193.5t-159 74.5q-97 0 -158 -74.5t-61 -193.5t61 -193.5t158 -74.5q98 0 159 74.5t61 193.5zM582 307q0 -140 -76.5 -228t-195.5 -88q-118 0 -194.5 88t-76.5 228t76.5 228t194.5 88q119 0 195.5 -88t76.5 -228z"/>
<glyph glyph-name="P" horiz-adv-x="529" unicode="P" d="M444 440q0 60 -39.5 94t-110.5 34h-164v-256h164q71 0 110.5 33.5t39.5 94.5zM296 265h-166v-265h-51v614h217q92 0 145.5 -45t53.5 -129q0 -85 -53.5 -130t-145.5 -45z"/>
<glyph glyph-name="Q" horiz-adv-x="620" unicode="Q" d="M530 307q0 119 -61 193.5t-159 74.5q-97 0 -158 -74.5t-61 -193.5t61 -193.5t158 -74.5q64 0 114 32l-52 67l35 27l51 -66q72 72 72 208zM504 -32l-51 65q-62 -42 -143 -42q-118 0 -194.5 88t-76.5 228t76.5 228t194.5 88q119 0 195.5 -88t76.5 -228q0 -155 -94 -246 l50 -65z"/>
<glyph glyph-name="R" horiz-adv-x="549" unicode="R" d="M130 568v-252h159q71 0 110.5 33.5t39.5 92.5q0 60 -39.5 93t-110.5 33h-159zM276 271h-146v-271h-51v614h212q92 0 145 -44.5t53 -127.5q0 -73 -41.5 -116t-115.5 -53l186 -273h-59z"/>
<glyph glyph-name="S" horiz-adv-x="466" unicode="S" d="M39 52v59q81 -73 190 -73q66 0 105 31t39 84q0 44 -24.5 68.5t-85.5 50.5l-90 38q-29 12 -48.5 23.5t-41 30t-32.5 44.5t-11 59q0 74 53.5 115t132.5 41q101 0 172 -52v-57q-74 62 -171 62q-60 0 -98.5 -28t-38.5 -80q0 -42 26 -66t81 -46l95 -40q69 -30 100 -67t31 -95 q0 -73 -54.5 -118t-139.5 -45q-120 0 -190 61z"/>
<glyph glyph-name="T" horiz-adv-x="562" unicode="T" d="M31 567v47h500v-47h-225v-567h-51v567h-224z"/>
<glyph glyph-name="U" horiz-adv-x="605" unicode="U" d="M302 -9q-104 0 -169.5 64.5t-65.5 186.5v372h51v-365q0 -104 50.5 -157.5t133.5 -53.5t134 53.5t51 157.5v365h51v-372q0 -122 -66 -186.5t-170 -64.5z"/>
<glyph glyph-name="V" horiz-adv-x="577" unicode="V" d="M311 0h-46l-242 614h53l212 -544l214 544h52z"/>
<glyph glyph-name="W" horiz-adv-x="759" unicode="W" d="M359 614h42l144 -528l142 528h50l-167 -614h-46l-145 523l-144 -523h-45l-168 614h51l142 -528z"/>
<glyph glyph-name="X" horiz-adv-x="540" unicode="X" d="M509 614l-210 -302l218 -312h-58l-190 271l-189 -271h-56l217 311l-211 303h58l182 -262l183 262h56z"/>
<glyph glyph-name="Y" horiz-adv-x="535" unicode="Y" d="M269 309l193 305h55l-224 -352v-262h-51v262l-223 352h56z"/>
<glyph glyph-name="Z" horiz-adv-x="517" unicode="Z" d="M483 47v-47h-455v4l375 563h-359v47h442v-4l-374 -563h371z"/>
<glyph glyph-name="bracketleft" horiz-adv-x="311" unicode="[" d="M126 605v-644h158v-45h-205v734h205v-45h-158z"/>
<glyph glyph-name="backslash" horiz-adv-x="306" unicode="\" d="M53 650l248 -734h-48l-248 734h48z"/>
<glyph glyph-name="bracketright" horiz-adv-x="311" unicode="]" d="M185 -39v644h-158v45h205v-734h-205v45h158z"/>
<glyph glyph-name="asciicircum" horiz-adv-x="321" unicode="^" d="M139 614h43l114 -181h-53l-83 129l-82 -129h-53z"/>
<glyph glyph-name="underscore" horiz-adv-x="352" unicode="_" d="M20 -88v46h312v-46h-312z"/>
<glyph glyph-name="grave" horiz-adv-x="500" unicode="`" d="M318 520h-49l-87 130h53z"/>
<glyph glyph-name="a" horiz-adv-x="435" unicode="a" d="M321 101v57q-11 29 -44.5 47.5t-73.5 18.5q-51 0 -86 -24.5t-35 -69.5t35.5 -70t85.5 -25q40 0 73.5 18.5t44.5 47.5zM321 219v89q0 45 -29.5 72t-80.5 27q-71 0 -129 -39v48q55 37 134 37q71 0 112 -38t41 -104v-311h-48v42q-16 -19 -50 -34t-73 -15q-70 0 -117 37.5 t-47 99.5q0 60 48 98t118 38q37 0 70.5 -14.5t50.5 -32.5z"/>
<glyph glyph-name="b" horiz-adv-x="492" unicode="b" d="M121 319v-194q22 -42 57.5 -65t76.5 -23q68 0 108 51.5t40 133.5t-40 133.5t-108 51.5q-41 0 -76.5 -23t-57.5 -65zM121 66v-66h-49v650h49v-272q20 31 57.5 53t80.5 22q94 0 144 -66.5t50 -164.5t-50 -164.5t-144 -66.5q-43 0 -80.5 22t-57.5 53z"/>
<glyph glyph-name="c" horiz-adv-x="402" unicode="c" d="M39 222q0 104 58.5 167.5t148.5 63.5q73 0 118 -39v-51q-49 45 -116 45q-68 0 -113.5 -50.5t-45.5 -135.5t45.5 -135.5t113.5 -50.5q67 0 116 45v-51q-45 -39 -118 -39q-90 0 -148.5 63.5t-58.5 167.5z"/>
<glyph glyph-name="d" horiz-adv-x="492" unicode="d" d="M371 125v194q-22 42 -57.5 65t-76.5 23q-68 0 -108 -51.5t-40 -133.5t40 -133.5t108 -51.5q41 0 76.5 23t57.5 65zM371 0v66q-20 -31 -57.5 -53t-80.5 -22q-94 0 -144 66.5t-50 164.5t50 164.5t144 66.5q43 0 80.5 -22t57.5 -53v272h49v-650h-49z"/>
<glyph glyph-name="e" horiz-adv-x="444" unicode="e" d="M231 409q-56 0 -94 -39.5t-47 -110.5h269q-2 64 -34 107t-94 43zM88 218q0 -87 45 -135t117 -48q73 0 125 44v-49q-48 -39 -129 -39q-93 0 -150 61.5t-57 165.5t52.5 169.5t139.5 65.5q85 0 130.5 -59t45.5 -158v-18h-319z"/>
<glyph glyph-name="f" horiz-adv-x="258" unicode="f" d="M269 650v-46q-20 11 -45 11q-36 0 -58.5 -25.5t-22.5 -70.5v-75h104v-43h-104v-401h-49v401h-72v43h72v80q0 60 35 97.5t90 37.5q27 0 50 -9z"/>
<glyph glyph-name="g" horiz-adv-x="488" unicode="g" d="M367 132v189q-22 41 -57 63.5t-75 22.5q-68 0 -107 -50t-39 -130q0 -81 39 -131t107 -50q40 0 75 23t57 63zM367 29v45q-21 -30 -57.5 -51.5t-79.5 -21.5q-92 0 -141.5 65t-49.5 161t49.5 161t141.5 65q43 0 80 -21.5t57 -52.5v65h49v-412q0 -104 -59 -157.5t-145 -53.5 q-84 0 -139 42v57q59 -54 139 -54q69 0 112 41.5t43 121.5z"/>
<glyph glyph-name="h" horiz-adv-x="483" unicode="h" d="M71 0v650h50v-277q22 34 59.5 57t82.5 23q74 0 114 -43.5t40 -115.5v-294h-49v287q0 54 -28.5 87t-85.5 33q-44 0 -80 -27t-53 -69v-311h-50z"/>
<glyph glyph-name="i" horiz-adv-x="192" unicode="i" d="M130 579q0 -14 -10 -24t-24 -10t-24 10t-10 24t10 24t24 10t24 -10t10 -24zM121 444v-444h-50v444h50z"/>
<glyph glyph-name="j" horiz-adv-x="192" unicode="j" d="M130 579q0 -14 -10 -24t-24 -10t-24 10t-10 24t10 24t24 10t24 -10t10 -24zM121 444v-508q0 -56 -29.5 -85.5t-82.5 -29.5q-15 0 -23 3v44q7 -3 20 -3q33 0 49 16.5t16 59.5v503h50z"/>
<glyph glyph-name="k" horiz-adv-x="425" unicode="k" d="M173 241l241 -241h-62l-231 228v-228h-50v650h50v-400l224 194h65z"/>
<glyph glyph-name="l" horiz-adv-x="192" unicode="l" d="M121 650v-650h-50v650h50z"/>
<glyph glyph-name="m" horiz-adv-x="713" unicode="m" d="M373 368q20 36 57 60.5t81 24.5q65 0 100 -42t35 -111v-300h-49v293q0 53 -24 83.5t-71 30.5q-40 0 -72 -26t-46 -67v-314h-50v293q0 53 -24 83.5t-71 30.5q-40 0 -72 -26t-46 -67v-314h-50v444h50v-68q18 34 51.5 55.5t76.5 21.5q93 0 124 -85z"/>
<glyph glyph-name="n" horiz-adv-x="483" unicode="n" d="M71 0v444h50v-71q22 34 59.5 57t82.5 23q74 0 114 -43.5t40 -115.5v-294h-49v287q0 54 -28.5 87t-85.5 33q-44 0 -80 -27t-53 -69v-311h-50z"/>
<glyph glyph-name="o" horiz-adv-x="471" unicode="o" d="M382 222q0 84 -40 135.5t-107 51.5q-66 0 -106 -51.5t-40 -135.5t40 -135.5t106 -51.5q67 0 107 51.5t40 135.5zM432 222q0 -103 -54.5 -167t-142.5 -64t-142 64t-54 167t54 167t142 64t142.5 -64t54.5 -167z"/>
<glyph glyph-name="p" horiz-adv-x="492" unicode="p" d="M121 319v-194q46 -88 133 -88q69 0 109 51.5t40 133.5t-40 133.5t-109 51.5q-87 0 -133 -88zM121 66v-236h-50v614h50v-66q20 31 57.5 53t80.5 22q93 0 143.5 -66.5t50.5 -164.5t-50.5 -164.5t-143.5 -66.5q-43 0 -80.5 22t-57.5 53z"/>
<glyph glyph-name="q" horiz-adv-x="492" unicode="q" d="M371 125v194q-46 88 -133 88q-69 0 -109 -51.5t-40 -133.5t40 -133.5t109 -51.5q87 0 133 88zM371 -170v236q-20 -31 -57.5 -53t-80.5 -22q-93 0 -143.5 66.5t-50.5 164.5t50.5 164.5t143.5 66.5q43 0 80.5 -22t57.5 -53v66h50v-614h-50z"/>
<glyph glyph-name="r" horiz-adv-x="301" unicode="r" d="M280 447v-49q-19 8 -41 8q-40 0 -71 -26t-47 -70v-310h-50v444h50v-71q16 35 48 57.5t72 22.5q19 0 39 -6z"/>
<glyph glyph-name="s" horiz-adv-x="381" unicode="s" d="M41 35v54q62 -54 142 -54q45 0 75.5 19.5t30.5 59.5q0 52 -70 77l-74 27q-51 19 -77 45t-26 73q0 54 42 85.5t105 31.5q75 0 130 -40v-54q-64 50 -130 50q-42 0 -70 -19t-28 -53q0 -29 18 -45t58 -31l77 -29q94 -32 94 -116q0 -58 -44.5 -91.5t-111.5 -33.5 q-88 0 -141 44z"/>
<glyph glyph-name="t" horiz-adv-x="292" unicode="t" d="M166 401v-401h-50v401h-95v43h95v114h50v-114h105v-43h-105z"/>
<glyph glyph-name="u" horiz-adv-x="481" unicode="u" d="M410 444v-444h-49v71q-22 -34 -59 -57t-82 -23q-74 0 -114 43.5t-40 115.5v294h49v-287q0 -54 28.5 -87t85.5 -33q44 0 79.5 27t52.5 69v311h49z"/>
<glyph glyph-name="v" horiz-adv-x="432" unicode="v" d="M238 0h-43l-177 444h53l146 -375l146 375h51z"/>
<glyph glyph-name="w" horiz-adv-x="604" unicode="w" d="M323 444l106 -366l109 366h48l-134 -444h-43l-107 367l-107 -367h-43l-134 444h49l109 -366l106 366h41z"/>
<glyph glyph-name="x" horiz-adv-x="431" unicode="x" d="M400 444l-157 -216l164 -228h-55l-137 190l-138 -190h-53l164 226l-157 218h55l130 -181l131 181h53z"/>
<glyph glyph-name="y" horiz-adv-x="432" unicode="y" d="M170 -170h-50l72 176l-174 438h53l146 -376l146 376h51z"/>
<glyph glyph-name="z" horiz-adv-x="416" unicode="z" d="M377 43v-43h-342v4l265 397h-253v43h331v-4l-264 -397h263z"/>
<glyph glyph-name="braceleft" horiz-adv-x="334" unicode="{" d="M152 213v-207q0 -45 42 -45h113v-45h-112q-40 0 -65.5 26t-25.5 67v206q0 45 -42 45h-42v46h42q42 0 42 45v206q0 41 25.5 67t65.5 26h112v-45h-113q-42 0 -42 -45v-207q0 -46 -40 -70q40 -26 40 -70z"/>
<glyph glyph-name="bar" horiz-adv-x="205" unicode="|" d="M79 -84v734h47v-734h-47z"/>
<glyph glyph-name="braceright" horiz-adv-x="334" unicode="}" d="M182 6v207q0 44 40 70q-40 24 -40 70v207q0 45 -42 45h-113v45h112q40 0 65.5 -26t25.5 -67v-206q0 -45 42 -45h42v-46h-42q-42 0 -42 -45v-206q0 -41 -25.5 -67t-65.5 -26h-112v45h113q42 0 42 45z"/>
<glyph glyph-name="asciitilde" horiz-adv-x="406" unicode="~" d="M321 329h45q0 -53 -23.5 -83.5t-65.5 -30.5q-35 0 -78 36t-64 36q-24 0 -37 -18.5t-13 -49.5h-45q0 52 24 82.5t66 30.5q34 0 77 -35.5t65 -35.5q49 0 49 68z"/>
<glyph glyph-name="exclamdown" horiz-adv-x="209" unicode="¡" d="M75 -96l10 422h36l10 -422h-56zM65 483q0 16 11 27t27 11q15 0 26 -11t11 -27t-11 -27.5t-26 -11.5q-16 0 -27 11.5t-11 27.5z"/>
<glyph glyph-name="cent" d="M267 -84v87q-79 11 -128 73t-49 156t49 156t128 73v87h45v-86q63 -3 103 -38v-51q-49 45 -116 45q-68 0 -113.5 -50.5t-45.5 -135.5t45.5 -135.5t113.5 -50.5q67 0 116 45v-51q-40 -34 -103 -39v-85h-45z" unicode="¢"/>
<glyph glyph-name="sterling" d="M59 281v42h89v86q0 99 51 156.5t143 57.5q66 0 109 -29v-48q-48 31 -109 31q-71 0 -108 -45t-37 -125v-84h169v-42h-169v-145q0 -59 -24 -91h293v-45h-407v45h65q24 37 24 91v145h-89z" unicode="£"/>
<glyph glyph-name="yen" d="M77 262v41h144l-188 311h56l172 -288l171 288h54l-189 -311h145v-41h-157v-77h157v-41h-157v-144h-51v144h-157v41h157v77h-157z" unicode="¥"/>
<glyph glyph-name="section" horiz-adv-x="448" unicode="§" d="M101 432q-22 31 -22 72q0 55 41.5 87t104.5 32q76 0 131 -40v-54q-64 50 -131 50q-41 0 -69 -19.5t-28 -55.5q0 -28 15 -47.5t50 -42.5l137 -93q46 -31 68.5 -58.5t22.5 -67.5q0 -79 -74 -110q22 -31 22 -73q0 -55 -41.5 -86.5t-104.5 -31.5q-76 0 -131 40v54 q63 -51 131 -51q42 0 69.5 20t27.5 55q0 28 -15 47.5t-50 43.5l-137 93q-46 31 -68.5 58.5t-22.5 67.5q0 38 20 67t54 43zM305 281l-173 118q-57 -20 -57 -77q0 -26 16.5 -44t52.5 -42l173 -118q57 20 57 76q0 18 -11 35t-22 26t-36 26z"/>
<glyph glyph-name="dieresis" horiz-adv-x="500" unicode="¨" d="M280 571q0 13 9 22.5t23 9.5t23.5 -9.5t9.5 -22.5q0 -14 -9.5 -23.5t-23.5 -9.5t-23 9.5t-9 23.5zM155 571q0 14 9.5 23t23.5 9t23 -9.5t9 -22.5q0 -14 -9 -23.5t-23 -9.5t-23.5 9.5t-9.5 23.5z"/>
<glyph glyph-name="copyright" horiz-adv-x="708" unicode="©" d="M179 309q0 90 51 144.5t130 54.5q62 0 104 -31v-51q-44 37 -101 37q-59 0 -97 -42t-38 -112t38 -112t97 -42q57 0 101 37v-51q-42 -31 -104 -31q-79 0 -130 54.5t-51 144.5zM638 307q0 122 -82.5 203t-201.5 81t-201.5 -81t-82.5 -203t82.5 -203t201.5 -81t201.5 81 t82.5 203zM670 307q0 -136 -92 -226t-224 -90q-131 0 -223 90t-92 226t92 226t223 90q132 0 224 -90t92 -226z"/>
<glyph glyph-name="ordfeminine" horiz-adv-x="282" unicode="ª" d="M203 391v34q-6 17 -26.5 28t-44.5 11q-31 0 -52.5 -14.5t-21.5 -40.5q0 -27 21.5 -42t52.5 -15q24 0 44.5 11t26.5 28zM203 471v50q0 28 -19 44.5t-53 16.5q-45 0 -84 -26v42q34 24 92 24q51 0 79.5 -26t28.5 -72v-203h-44v25q-28 -30 -79 -30q-46 0 -77.5 25t-31.5 67 q0 41 32 66.5t79 25.5q48 0 77 -29z"/>
<glyph glyph-name="guillemotleft" horiz-adv-x="314" unicode="«" d="M289 86h-49l-92 136l92 136h49l-92 -136zM166 86h-49l-92 136l92 136h49l-92 -136z"/>
<glyph glyph-name="registered" horiz-adv-x="418" unicode="®" d="M254 479q0 12 -9 20.5t-24 8.5h-46v-58h46q15 0 24 8.5t9 20.5zM205 420h-30v-74h-33v192h78q30 0 48.5 -16t18.5 -43q0 -47 -46 -57l53 -76h-39zM362 440q0 67 -44.5 111t-108.5 44t-108.5 -44t-44.5 -111t44.5 -111.5t108.5 -44.5t108.5 44.5t44.5 111.5zM390 440 q0 -78 -53 -130.5t-128 -52.5t-128 52.5t-53 130.5t53 130.5t128 52.5t128 -52.5t53 -130.5z"/>
<glyph glyph-name="macron" horiz-adv-x="500" unicode="¯" d="M149 537v41h201v-41h-201z"/>
<glyph glyph-name="degree" horiz-adv-x="316" unicode="°" d="M271 508q0 -47 -33 -80.5t-80 -33.5t-80 33.5t-33 80.5q0 48 33 81.5t80 33.5t80 -33.5t33 -81.5zM85 508q0 -31 21.5 -52.5t51.5 -21.5q31 0 52.5 21.5t21.5 52.5t-21.5 53t-52.5 22q-30 0 -51.5 -22t-21.5 -53z"/>
<glyph glyph-name="plusminus" d="M75 104v43h369v-43h-369zM238 495h43v-126h163v-42h-163v-126h-43v126h-163v42h163v126z" unicode="±"/>
<glyph glyph-name="twosuperior" horiz-adv-x="263" unicode="²" d="M97 324h139v-39h-215v2l103 126q2 3 11.5 14.5t12 14.5t10 13t9.5 14t6.5 12t6 14t3 13.5t1.5 14.5q0 26 -16.5 41.5t-45.5 15.5q-49 0 -93 -46v45q39 41 99 41q46 0 72.5 -25.5t26.5 -67.5q0 -22 -11 -46t-21 -38t-35 -45z"/>
<glyph glyph-name="threesuperior" horiz-adv-x="259" unicode="³" d="M27 575v40h200v-2l-85 -130q39 -5 63.5 -31.5t24.5 -65.5q0 -48 -32.5 -77t-80.5 -29q-54 0 -91 27v46q38 -35 88 -35q33 0 53.5 18t20.5 49q0 34 -25.5 52.5t-65.5 18.5h-11v2l78 117h-137z"/>
<glyph glyph-name="acute" horiz-adv-x="500" unicode="´" d="M231 520h-49l83 130h53z"/>
<glyph glyph-name="paragraph" horiz-adv-x="446" unicode="¶" d="M213 -90v429q-78 0 -136.5 35t-58.5 103q0 67 58.5 102t136.5 35h44v-704h-44zM324 -90v704h43v-704h-43z"/>
<glyph glyph-name="periodcentered" horiz-adv-x="151" unicode="·" d="M38 261q0 16 11 27.5t26 11.5q16 0 27 -11.5t11 -27.5t-11 -27t-27 -11q-15 0 -26 11t-11 27z"/>
<glyph glyph-name="cedilla" horiz-adv-x="500" unicode="¸" d="M241 -175h-46l59 127h48z"/>
<glyph glyph-name="onesuperior" horiz-adv-x="206" unicode="¹" d="M154 615v-330h-44v279l-86 -44v45l102 50h28z"/>
<glyph glyph-name="ordmasculine" horiz-adv-x="304" unicode="º" d="M241 469q0 51 -24.5 82.5t-64.5 31.5t-64.5 -31.5t-24.5 -82.5t24.5 -82.5t64.5 -31.5t64.5 31.5t24.5 82.5zM286 469q0 -69 -37 -111.5t-97 -42.5q-61 0 -98 42.5t-37 111.5q0 68 37 110.5t98 42.5t97.5 -42t36.5 -111z"/>
<glyph glyph-name="guillemotright" horiz-adv-x="314" unicode="»" d="M74 86h-49l92 136l-92 136h49l92 -136zM197 86h-49l92 136l-92 136h49l92 -136z"/>
<glyph glyph-name="onequarter" horiz-adv-x="643" unicode="¼" d="M177 615v-330h-44v279l-86 -44v45l102 50h28zM501 330l-100 -218h99v76h39v-76h55v-37h-55v-75h-39v75h-159v3l117 252h43zM539 614l-417 -614h-45l417 614h45z"/>
<glyph glyph-name="onehalf" horiz-adv-x="653" unicode="½" d="M461 39h139v-39h-215v2l102 126q2 2 10 11.5t10 12t8 10.5t8 11t7 10t6.5 11t4.5 10.5t4 11t2 10.5t1 12q0 26 -16.5 41.5t-45.5 15.5q-48 0 -94 -46v45q41 41 100 41q46 0 72.5 -25.5t26.5 -67.5q0 -22 -11 -46t-21.5 -38.5t-34.5 -43.5zM177 615v-330h-44v279l-86 -44 v45l102 50h28zM539 614l-417 -614h-45l417 614h45z"/>
<glyph glyph-name="threequarters" horiz-adv-x="670" unicode="¾" d="M528 330l-100 -218h98v76h40v-76h55v-37h-55v-75h-40v75h-158v3l117 252h43zM53 575v39h200v-2l-85 -130q39 -5 63.5 -31.5t24.5 -65.5q0 -48 -32.5 -77t-80.5 -29q-54 0 -91 27v46q38 -35 88 -35q33 0 53.5 18t20.5 50q0 33 -25.5 51.5t-65.5 18.5h-11v2l78 118h-137z M566 614l-417 -614h-46l417 614h46z"/>
<glyph glyph-name="questiondown" horiz-adv-x="414" unicode="¿" d="M247 483q0 -16 -11 -27.5t-26 -11.5q-16 0 -27 11.5t-11 27.5t11 27t27 11q15 0 26 -11t11 -27zM179 214q-5 -6 -23 -25t-26.5 -29.5t-20 -28t-17 -34.5t-5.5 -36q0 -55 33.5 -86.5t95.5 -31.5q93 0 175 91v-56q-31 -36 -78 -59.5t-99 -23.5q-83 0 -130 45t-47 121 q0 11 2 21.5t4 19.5t7.5 20l9 18t12 18.5t12 17t14 17t14 15.5t15 16.5t14.5 15.5q42 45 43 85h48q-2 -33 -14 -56.5t-39 -54.5z"/>
<glyph glyph-name="Agrave" horiz-adv-x="579" unicode="À" d="M313 665h-51l-87 117h55zM289 548l-118 -300h236zM266 614h47l243 -614h-51l-80 202h-272l-79 -202h-51z"/>
<glyph glyph-name="Aacute" horiz-adv-x="579" unicode="Á" d="M315 665h-50l82 117h56zM289 548l-118 -300h236zM266 614h47l243 -614h-51l-80 202h-272l-79 -202h-51z"/>
<glyph glyph-name="Acircumflex" horiz-adv-x="579" unicode="Â" d="M311 786l92 -119h-47l-67 84l-67 -84h-47l92 119h44zM289 548l-118 -300h236zM266 614h47l243 -614h-51l-80 202h-272l-79 -202h-51z"/>
<glyph glyph-name="Atilde" horiz-adv-x="579" unicode="Ã" d="M380 769h35q0 -48 -18 -76t-51 -28q-27 0 -60 32t-50 32q-36 0 -36 -61h-36q0 48 18 76t51 28q28 0 60.5 -32t49.5 -32q35 0 37 61zM289 548l-118 -300h236zM266 614h47l243 -614h-51l-80 202h-272l-79 -202h-51z"/>
<glyph glyph-name="Adieresis" horiz-adv-x="579" unicode="Ä" d="M320 715q0 14 9 23.5t23 9.5t23.5 -9.5t9.5 -23.5q0 -13 -9.5 -23t-23.5 -10q-13 0 -22.5 9.5t-9.5 23.5zM195 715q0 14 9.5 23.5t23.5 9.5t23 -9.5t9 -23.5t-9.5 -23.5t-22.5 -9.5q-14 0 -23.5 9.5t-9.5 23.5zM289 548l-118 -300h236zM266 614h47l243 -614h-51l-80 202 h-272l-79 -202h-51z"/>
<glyph glyph-name="Aring" horiz-adv-x="579" unicode="Å" d="M338 728q0 21 -14.5 35.5t-34.5 14.5t-34.5 -14.5t-14.5 -35.5q0 -20 14.5 -34.5t34.5 -14.5t34.5 14.5t14.5 34.5zM370 728q0 -34 -23.5 -57t-57.5 -23t-57.5 23t-23.5 57t23.5 57.5t57.5 23.5t57.5 -23.5t23.5 -57.5zM289 548l-118 -300h236zM266 614h47l243 -614h-51 l-80 202h-272l-79 -202h-51z"/>
<glyph glyph-name="AE" horiz-adv-x="858" unicode="Æ" d="M434 569l-202 -321h202v321zM405 614h397v-47h-318v-227h287v-47h-287v-246h318v-47h-368v202h-231l-126 -202h-54z"/>
<glyph glyph-name="Ccedilla" horiz-adv-x="535" unicode="Ç" d="M280 -175h-46l59 127h48zM39 307q0 143 79.5 229.5t198.5 86.5q102 0 168 -53v-56q-71 61 -167 61q-100 0 -163.5 -72.5t-63.5 -195.5t63.5 -195.5t163.5 -72.5q95 0 167 62v-57q-66 -53 -168 -53q-119 0 -198.5 86.5t-79.5 229.5z"/>
<glyph glyph-name="Egrave" horiz-adv-x="515" unicode="È" d="M79 614h381v-47h-331v-227h300v-47h-300v-246h331v-47h-381v614zM301 665h-51l-87 117h55z"/>
<glyph glyph-name="Eacute" horiz-adv-x="515" unicode="É" d="M79 614h381v-47h-331v-227h300v-47h-300v-246h331v-47h-381v614zM294 665h-50l82 117h56z"/>
<glyph glyph-name="Ecircumflex" horiz-adv-x="515" unicode="Ê" d="M296 786l92 -119h-47l-67 84l-67 -84h-47l92 119h44zM79 614h381v-47h-331v-227h300v-47h-300v-246h331v-47h-381v614z"/>
<glyph glyph-name="Edieresis" horiz-adv-x="515" unicode="Ë" d="M79 614h381v-47h-331v-227h300v-47h-300v-246h331v-47h-381v614zM304 715q0 14 9 23.5t23 9.5t23.5 -9.5t9.5 -23.5q0 -13 -9.5 -23t-23.5 -10q-13 0 -22.5 9.5t-9.5 23.5zM179 715q0 14 9.5 23.5t23.5 9.5t23 -9.5t9 -23.5t-9.5 -23.5t-22.5 -9.5q-14 0 -23.5 9.5 t-9.5 23.5z"/>
<glyph glyph-name="Igrave" horiz-adv-x="209" unicode="Ì" d="M131 665h-51l-87 117h55zM130 614v-614h-51v614h51z"/>
<glyph glyph-name="Iacute" horiz-adv-x="209" unicode="Í" d="M124 665h-50l82 117h56zM130 614v-614h-51v614h51z"/>
<glyph glyph-name="Icircumflex" horiz-adv-x="209" unicode="Î" d="M126 786l92 -119h-47l-67 84l-67 -84h-47l92 119h44zM130 614v-614h-51v614h51z"/>
<glyph glyph-name="Idieresis" horiz-adv-x="209" unicode="Ï" d="M134 715q0 14 9 23.5t23 9.5t23.5 -9.5t9.5 -23.5q0 -13 -9.5 -23t-23.5 -10q-13 0 -22.5 9.5t-9.5 23.5zM9 715q0 14 9.5 23.5t23.5 9.5t23 -9.5t9 -23.5t-9.5 -23.5t-22.5 -9.5q-14 0 -23.5 9.5t-9.5 23.5zM130 614v-614h-51v614h51z"/>
<glyph glyph-name="Eth" horiz-adv-x="616" unicode="Ð" d="M143 47h136q113 0 179.5 71t66.5 189t-66.5 189t-179.5 71h-136v-227h130v-45h-130v-248zM34 295v45h58v274h187q134 0 216 -83.5t82 -223.5t-82 -223.5t-216 -83.5h-187v295h-58z"/>
<glyph glyph-name="Ntilde" horiz-adv-x="616" unicode="Ñ" d="M537 614v-614h-34l-375 533v-533h-49v614h49l360 -512v512h49zM398 769h35q0 -48 -18 -76t-51 -28q-27 0 -60 32t-50 32q-36 0 -36 -61h-36q0 48 18 76t51 28q28 0 60.5 -32t49.5 -32q35 0 37 61z"/>
<glyph glyph-name="Ograve" horiz-adv-x="620" unicode="Ò" d="M530 307q0 119 -61 193.5t-159 74.5q-97 0 -158 -74.5t-61 -193.5t61 -193.5t158 -74.5q98 0 159 74.5t61 193.5zM582 307q0 -140 -76.5 -228t-195.5 -88q-118 0 -194.5 88t-76.5 228t76.5 228t194.5 88q119 0 195.5 -88t76.5 -228zM337 665h-51l-87 117h55z"/>
<glyph glyph-name="Oacute" horiz-adv-x="620" unicode="Ó" d="M530 307q0 119 -61 193.5t-159 74.5q-97 0 -158 -74.5t-61 -193.5t61 -193.5t158 -74.5q98 0 159 74.5t61 193.5zM582 307q0 -140 -76.5 -228t-195.5 -88q-118 0 -194.5 88t-76.5 228t76.5 228t194.5 88q119 0 195.5 -88t76.5 -228zM330 665h-50l82 117h56z"/>
<glyph glyph-name="Ocircumflex" horiz-adv-x="620" unicode="Ô" d="M332 786l92 -119h-47l-67 84l-67 -84h-47l92 119h44zM530 307q0 119 -61 193.5t-159 74.5q-97 0 -158 -74.5t-61 -193.5t61 -193.5t158 -74.5q98 0 159 74.5t61 193.5zM582 307q0 -140 -76.5 -228t-195.5 -88q-118 0 -194.5 88t-76.5 228t76.5 228t194.5 88 q119 0 195.5 -88t76.5 -228z"/>
<glyph glyph-name="Otilde" horiz-adv-x="620" unicode="Õ" d="M530 307q0 119 -61 193.5t-159 74.5q-97 0 -158 -74.5t-61 -193.5t61 -193.5t158 -74.5q98 0 159 74.5t61 193.5zM582 307q0 -140 -76.5 -228t-195.5 -88q-118 0 -194.5 88t-76.5 228t76.5 228t194.5 88q119 0 195.5 -88t76.5 -228zM401 769h35q0 -48 -18 -76t-51 -28 q-27 0 -60 32t-50 32q-36 0 -36 -61h-36q0 48 18 76t51 28q28 0 60.5 -32t49.5 -32q35 0 37 61z"/>
<glyph glyph-name="Odieresis" horiz-adv-x="620" unicode="Ö" d="M530 307q0 119 -61 193.5t-159 74.5q-97 0 -158 -74.5t-61 -193.5t61 -193.5t158 -74.5q98 0 159 74.5t61 193.5zM582 307q0 -140 -76.5 -228t-195.5 -88q-118 0 -194.5 88t-76.5 228t76.5 228t194.5 88q119 0 195.5 -88t76.5 -228zM340 715q0 14 9 23.5t23 9.5 t23.5 -9.5t9.5 -23.5q0 -13 -9.5 -23t-23.5 -10q-13 0 -22.5 9.5t-9.5 23.5zM215 715q0 14 9.5 23.5t23.5 9.5t23 -9.5t9 -23.5t-9.5 -23.5t-22.5 -9.5q-14 0 -23.5 9.5t-9.5 23.5z"/>
<glyph glyph-name="multiply" d="M231 292l-121 122l29 29l121 -122l120 122l30 -29l-121 -122l121 -122l-30 -29l-120 121l-121 -121l-29 29z" unicode="×"/>
<glyph glyph-name="Oslash" horiz-adv-x="630" unicode="Ø" d="M535 307q0 106 -48 177l-315 -389q58 -56 143 -56q98 0 159 74.5t61 193.5zM96 307q0 -109 50 -181l315 390q-59 59 -146 59q-97 0 -158 -74.5t-61 -193.5zM50 7l64 79q-70 88 -70 221q0 140 76.5 228t194.5 88q105 0 177 -69l52 64l32 -24l-57 -70q68 -87 68 -217 q0 -140 -76.5 -228t-195.5 -88q-101 0 -173 66l-60 -74z"/>
<glyph glyph-name="Ugrave" horiz-adv-x="605" unicode="Ù" d="M302 -9q-104 0 -169.5 64.5t-65.5 186.5v372h51v-365q0 -104 50.5 -157.5t133.5 -53.5t134 53.5t51 157.5v365h51v-372q0 -122 -66 -186.5t-170 -64.5zM329 665h-51l-87 117h55z"/>
<glyph glyph-name="Uacute" horiz-adv-x="605" unicode="Ú" d="M302 -9q-104 0 -169.5 64.5t-65.5 186.5v372h51v-365q0 -104 50.5 -157.5t133.5 -53.5t134 53.5t51 157.5v365h51v-372q0 -122 -66 -186.5t-170 -64.5zM322 665h-50l82 117h56z"/>
<glyph glyph-name="Ucircumflex" horiz-adv-x="605" unicode="Û" d="M325 786l92 -119h-47l-67 84l-67 -84h-47l92 119h44zM302 -9q-104 0 -169.5 64.5t-65.5 186.5v372h51v-365q0 -104 50.5 -157.5t133.5 -53.5t134 53.5t51 157.5v365h51v-372q0 -122 -66 -186.5t-170 -64.5z"/>
<glyph glyph-name="Udieresis" horiz-adv-x="605" unicode="Ü" d="M302 -9q-104 0 -169.5 64.5t-65.5 186.5v372h51v-365q0 -104 50.5 -157.5t133.5 -53.5t134 53.5t51 157.5v365h51v-372q0 -122 -66 -186.5t-170 -64.5zM333 715q0 14 9 23.5t23 9.5t23.5 -9.5t9.5 -23.5q0 -13 -10 -23t-23 -10t-22.5 9.5t-9.5 23.5zM208 715 q0 14 9.5 23.5t23.5 9.5t23 -9.5t9 -23.5t-9.5 -23.5t-22.5 -9.5q-14 0 -23.5 9.5t-9.5 23.5z"/>
<glyph glyph-name="Yacute" horiz-adv-x="535" unicode="Ý" d="M287 665h-50l82 117h56zM269 309l193 305h55l-224 -352v-262h-51v262l-223 352h56z"/>
<glyph glyph-name="Thorn" horiz-adv-x="529" unicode="Þ" d="M444 315q0 61 -37 94.5t-108 33.5h-169v-256h169q71 0 108 33.5t37 94.5zM301 140h-171v-140h-51v614h51v-125h171q91 0 142.5 -45t51.5 -129q0 -85 -51.5 -130t-142.5 -45z"/>
<glyph glyph-name="germandbls" horiz-adv-x="501" unicode="ß" d="M310 370q62 -9 106.5 -57t44.5 -125q0 -90 -52 -142.5t-135 -52.5q-54 0 -94 23v48q38 -26 92 -26q65 0 102.5 40t37.5 112q0 73 -47.5 114t-124.5 41h-43v44h43q52 0 86 33.5t34 83.5q0 47 -30.5 78t-82.5 31q-61 0 -94 -40.5t-33 -107.5v-467h-49v467q0 85 46 138.5 t130 53.5q74 0 117.5 -43.5t43.5 -107.5q0 -52 -28 -87.5t-70 -50.5z"/>
<glyph glyph-name="agrave" horiz-adv-x="435" unicode="à" d="M249 520h-49l-87 130h53zM321 101v57q-11 29 -44.5 47.5t-73.5 18.5q-51 0 -86 -24.5t-35 -69.5t35.5 -70t85.5 -25q40 0 73.5 18.5t44.5 47.5zM321 219v89q0 45 -29.5 72t-80.5 27q-71 0 -129 -39v48q55 37 134 37q71 0 112 -38t41 -104v-311h-48v42q-16 -19 -50 -34 t-73 -15q-70 0 -117 37.5t-47 99.5q0 60 48 98t118 38q37 0 70.5 -14.5t50.5 -32.5z"/>
<glyph glyph-name="aacute" horiz-adv-x="435" unicode="á" d="M242 520h-49l83 130h53zM321 101v57q-11 29 -44.5 47.5t-73.5 18.5q-51 0 -86 -24.5t-35 -69.5t35.5 -70t85.5 -25q40 0 73.5 18.5t44.5 47.5zM321 219v89q0 45 -29.5 72t-80.5 27q-71 0 -129 -39v48q55 37 134 37q71 0 112 -38t41 -104v-311h-48v42q-16 -19 -50 -34 t-73 -15q-70 0 -117 37.5t-47 99.5q0 60 48 98t118 38q37 0 70.5 -14.5t50.5 -32.5z"/>
<glyph glyph-name="acircumflex" horiz-adv-x="435" unicode="â" d="M244 644l92 -131h-46l-68 97l-68 -97h-46l92 131h44zM321 101v57q-11 29 -44.5 47.5t-73.5 18.5q-51 0 -86 -24.5t-35 -69.5t35.5 -70t85.5 -25q40 0 73.5 18.5t44.5 47.5zM321 219v89q0 45 -29.5 72t-80.5 27q-71 0 -129 -39v48q55 37 134 37q71 0 112 -38t41 -104v-311 h-48v42q-16 -19 -50 -34t-73 -15q-70 0 -117 37.5t-47 99.5q0 60 48 98t118 38q37 0 70.5 -14.5t50.5 -32.5z"/>
<glyph glyph-name="atilde" horiz-adv-x="435" unicode="ã" d="M311 625h35q0 -48 -17.5 -76.5t-50.5 -28.5q-27 0 -59.5 32.5t-48.5 32.5q-36 0 -36 -62h-35q0 48 17.5 76.5t50.5 28.5q22 0 41.5 -16t36 -32.5t30.5 -16.5q17 0 26.5 17t9.5 45zM321 101v57q-11 29 -44.5 47.5t-73.5 18.5q-51 0 -86 -24.5t-35 -69.5t35.5 -70t85.5 -25 q40 0 73.5 18.5t44.5 47.5zM321 219v89q0 45 -29.5 72t-80.5 27q-71 0 -129 -39v48q55 37 134 37q71 0 112 -38t41 -104v-311h-48v42q-16 -19 -50 -34t-73 -15q-70 0 -117 37.5t-47 99.5q0 60 48 98t118 38q37 0 70.5 -14.5t50.5 -32.5z"/>
<glyph glyph-name="adieresis" horiz-adv-x="435" unicode="ä" d="M252 571q0 13 9 22.5t23 9.5t23.5 -9.5t9.5 -22.5q0 -14 -9.5 -23.5t-23.5 -9.5t-23 9.5t-9 23.5zM127 571q0 14 9.5 23t23.5 9t23 -9.5t9 -22.5q0 -14 -9 -23.5t-23 -9.5t-23.5 9.5t-9.5 23.5zM321 101v57q-11 29 -44.5 47.5t-73.5 18.5q-51 0 -86 -24.5t-35 -69.5 t35.5 -70t85.5 -25q40 0 73.5 18.5t44.5 47.5zM321 219v89q0 45 -29.5 72t-80.5 27q-71 0 -129 -39v48q55 37 134 37q71 0 112 -38t41 -104v-311h-48v42q-16 -19 -50 -34t-73 -15q-70 0 -117 37.5t-47 99.5q0 60 48 98t118 38q37 0 70.5 -14.5t50.5 -32.5z"/>
<glyph glyph-name="aring" horiz-adv-x="435" unicode="å" d="M271 580q0 21 -14.5 35t-34.5 14t-34.5 -14t-14.5 -35t14.5 -35t34.5 -14t34.5 14t14.5 35zM303 580q0 -34 -23.5 -57.5t-57.5 -23.5t-57.5 23.5t-23.5 57.5t23.5 57.5t57.5 23.5t57.5 -23.5t23.5 -57.5zM321 101v57q-11 29 -44.5 47.5t-73.5 18.5q-51 0 -86 -24.5 t-35 -69.5t35.5 -70t85.5 -25q40 0 73.5 18.5t44.5 47.5zM321 219v89q0 45 -29.5 72t-80.5 27q-71 0 -129 -39v48q55 37 134 37q71 0 112 -38t41 -104v-311h-48v42q-16 -19 -50 -34t-73 -15q-70 0 -117 37.5t-47 99.5q0 60 48 98t118 38q37 0 70.5 -14.5t50.5 -32.5z"/>
<glyph glyph-name="ae" horiz-adv-x="723" unicode="æ" d="M509 409q-56 0 -94.5 -40.5t-45.5 -110.5h268q-2 65 -34 108t-94 43zM188 35q50 0 85 29t49 74v79h-119q-51 0 -86 -23.5t-35 -67.5t30 -67.5t76 -23.5zM524 -9q-124 0 -175 106q-56 -104 -163 -104q-66 0 -109 36t-43 95q0 61 48 97.5t119 36.5h121v38q0 52 -30 81.5 t-81 29.5q-71 0 -129 -39v48q55 37 134 37q55 0 92 -27.5t48 -71.5q50 99 153 99q86 0 131.5 -59t45.5 -159v-18h-319q1 -89 45.5 -135.5t115.5 -46.5q72 0 126 44v-49q-49 -39 -130 -39z"/>
<glyph glyph-name="ccedilla" horiz-adv-x="402" unicode="ç" d="M209 -175h-46l59 127h48zM39 222q0 104 58.5 167.5t148.5 63.5q73 0 118 -39v-51q-49 45 -116 45q-68 0 -113.5 -50.5t-45.5 -135.5t45.5 -135.5t113.5 -50.5q67 0 116 45v-51q-45 -39 -118 -39q-90 0 -148.5 63.5t-58.5 167.5z"/>
<glyph glyph-name="egrave" horiz-adv-x="444" unicode="è" d="M261 520h-49l-87 130h53zM231 409q-56 0 -94 -39.5t-47 -110.5h269q-2 64 -34 107t-94 43zM88 218q0 -87 45 -135t117 -48q73 0 125 44v-49q-48 -39 -129 -39q-93 0 -150 61.5t-57 165.5t52.5 169.5t139.5 65.5q85 0 130.5 -59t45.5 -158v-18h-319z"/>
<glyph glyph-name="eacute" horiz-adv-x="444" unicode="é" d="M254 520h-49l83 130h53zM231 409q-56 0 -94 -39.5t-47 -110.5h269q-2 64 -34 107t-94 43zM88 218q0 -87 45 -135t117 -48q73 0 125 44v-49q-48 -39 -129 -39q-93 0 -150 61.5t-57 165.5t52.5 169.5t139.5 65.5q85 0 130.5 -59t45.5 -158v-18h-319z"/>
<glyph glyph-name="ecircumflex" horiz-adv-x="444" unicode="ê" d="M256 644l92 -131h-46l-68 97l-68 -97h-46l92 131h44zM231 409q-56 0 -94 -39.5t-47 -110.5h269q-2 64 -34 107t-94 43zM88 218q0 -87 45 -135t117 -48q73 0 125 44v-49q-48 -39 -129 -39q-93 0 -150 61.5t-57 165.5t52.5 169.5t139.5 65.5q85 0 130.5 -59t45.5 -158v-18 h-319z"/>
<glyph glyph-name="edieresis" horiz-adv-x="444" unicode="ë" d="M264 571q0 13 9 22.5t23 9.5t23.5 -9.5t9.5 -22.5q0 -14 -9.5 -23.5t-23.5 -9.5t-23 9.5t-9 23.5zM139 571q0 14 9.5 23t23.5 9t23 -9.5t9 -22.5q0 -14 -9 -23.5t-23 -9.5t-23.5 9.5t-9.5 23.5zM231 409q-56 0 -94 -39.5t-47 -110.5h269q-2 64 -34 107t-94 43zM88 218 q0 -87 45 -135t117 -48q73 0 125 44v-49q-48 -39 -129 -39q-93 0 -150 61.5t-57 165.5t52.5 169.5t139.5 65.5q85 0 130.5 -59t45.5 -158v-18h-319z"/>
<glyph glyph-name="igrave" horiz-adv-x="192" unicode="ì" d="M123 520h-49l-87 130h53zM121 444v-444h-50v444h50z"/>
<glyph glyph-name="iacute" horiz-adv-x="192" unicode="í" d="M121 444v-444h-50v444h50zM116 520h-49l83 130h53z"/>
<glyph glyph-name="icircumflex" horiz-adv-x="192" unicode="î" d="M121 444v-444h-50v444h50zM118 644l72 -131h-44l-50 94l-50 -94h-44l72 131h44z"/>
<glyph glyph-name="idieresis" horiz-adv-x="192" unicode="ï" d="M121 444v-444h-50v444h50zM117 571q0 13 9.5 22.5t22.5 9.5q14 0 23.5 -9t9.5 -23t-9.5 -23.5t-23.5 -9.5t-23 9.5t-9 23.5zM10 571q0 13 9.5 22.5t23.5 9.5t23.5 -9.5t9.5 -22.5q0 -14 -9.5 -23.5t-23.5 -9.5t-23.5 9.5t-9.5 23.5z"/>
<glyph glyph-name="eth" horiz-adv-x="471" unicode="ð" d="M382 221q0 84 -40 135t-107 51q-66 0 -106 -51t-40 -135q0 -83 40 -134.5t106 -51.5q67 0 107 51t40 135zM138 501l-13 34l98 32q-46 43 -98 79v4h63q45 -31 82 -68l81 27l12 -33l-65 -22q134 -149 134 -330q0 -104 -54.5 -168.5t-142.5 -64.5t-142 64t-54 166 q0 103 53.5 166.5t139.5 63.5q72 0 120 -58h2q-32 73 -102 146z"/>
<glyph glyph-name="ntilde" horiz-adv-x="483" unicode="ñ" d="M333 625h35q0 -48 -17.5 -76.5t-50.5 -28.5q-27 0 -59.5 32.5t-48.5 32.5q-36 0 -36 -62h-35q0 48 17.5 76.5t50.5 28.5q22 0 41.5 -16t36 -32.5t30.5 -16.5q17 0 26.5 17t9.5 45zM71 0v444h50v-71q22 34 59.5 57t82.5 23q74 0 114 -43.5t40 -115.5v-294h-49v287 q0 54 -28.5 87t-85.5 33q-44 0 -80 -27t-53 -69v-311h-50z"/>
<glyph glyph-name="ograve" horiz-adv-x="471" unicode="ò" d="M262 520h-49l-87 130h53zM382 222q0 84 -40 135.5t-107 51.5q-66 0 -106 -51.5t-40 -135.5t40 -135.5t106 -51.5q67 0 107 51.5t40 135.5zM432 222q0 -103 -54.5 -167t-142.5 -64t-142 64t-54 167t54 167t142 64t142.5 -64t54.5 -167z"/>
<glyph glyph-name="oacute" horiz-adv-x="471" unicode="ó" d="M382 222q0 84 -40 135.5t-107 51.5q-66 0 -106 -51.5t-40 -135.5t40 -135.5t106 -51.5q67 0 107 51.5t40 135.5zM432 222q0 -103 -54.5 -167t-142.5 -64t-142 64t-54 167t54 167t142 64t142.5 -64t54.5 -167zM255 520h-49l83 130h53z"/>
<glyph glyph-name="ocircumflex" horiz-adv-x="471" unicode="ô" d="M382 222q0 84 -40 135.5t-107 51.5q-66 0 -106 -51.5t-40 -135.5t40 -135.5t106 -51.5q67 0 107 51.5t40 135.5zM432 222q0 -103 -54.5 -167t-142.5 -64t-142 64t-54 167t54 167t142 64t142.5 -64t54.5 -167zM257 644l92 -131h-46l-68 97l-68 -97h-46l92 131h44z"/>
<glyph glyph-name="otilde" horiz-adv-x="471" unicode="õ" d="M324 625h35q0 -48 -17.5 -76.5t-50.5 -28.5q-27 0 -59.5 32.5t-48.5 32.5q-36 0 -36 -62h-35q0 48 17.5 76.5t50.5 28.5q28 0 60 -32.5t48 -32.5q17 0 26.5 17t9.5 45zM382 222q0 84 -40 135.5t-107 51.5q-66 0 -106 -51.5t-40 -135.5t40 -135.5t106 -51.5q67 0 107 51.5 t40 135.5zM432 222q0 -103 -54.5 -167t-142.5 -64t-142 64t-54 167t54 167t142 64t142.5 -64t54.5 -167z"/>
<glyph glyph-name="odieresis" horiz-adv-x="471" unicode="ö" d="M382 222q0 84 -40 135.5t-107 51.5q-66 0 -106 -51.5t-40 -135.5t40 -135.5t106 -51.5q67 0 107 51.5t40 135.5zM432 222q0 -103 -54.5 -167t-142.5 -64t-142 64t-54 167t54 167t142 64t142.5 -64t54.5 -167zM266 571q0 13 9 22.5t23 9.5t23.5 -9.5t9.5 -22.5 q0 -14 -9.5 -23.5t-23.5 -9.5t-23 9.5t-9 23.5zM141 571q0 14 9.5 23t23.5 9t23 -9.5t9 -22.5q0 -14 -9 -23.5t-23 -9.5t-23.5 9.5t-9.5 23.5z"/>
<glyph glyph-name="divide" d="M223 142q0 15 11 26t25 11q15 0 26 -11t11 -26q0 -16 -11 -26.5t-26 -10.5t-25.5 10.5t-10.5 26.5zM223 447q0 16 11 27t25 11q15 0 26 -11t11 -27q0 -15 -11 -25.5t-26 -10.5q-14 0 -25 10.5t-11 25.5zM74 273v43h372v-43h-372z" unicode="÷"/>
<glyph glyph-name="oslash" horiz-adv-x="481" unicode="ø" d="M388 222q0 72 -30 121l-212 -271q37 -37 94 -37q67 0 107.5 51.5t40.5 135.5zM93 222q0 -76 30 -122l212 272q-39 37 -95 37q-66 0 -106.5 -51.5t-40.5 -135.5zM44 -1l49 62q-49 61 -49 161q0 103 54 167t142 64q72 0 123 -45l42 54l29 -21l-46 -59q49 -63 49 -160 q0 -103 -54.5 -167t-142.5 -64q-71 0 -123 44l-44 -57z"/>
<glyph glyph-name="ugrave" horiz-adv-x="481" unicode="ù" d="M266 520h-49l-87 130h53zM410 444v-444h-49v71q-22 -34 -59 -57t-82 -23q-74 0 -114 43.5t-40 115.5v294h49v-287q0 -54 28.5 -87t85.5 -33q44 0 79.5 27t52.5 69v311h49z"/>
<glyph glyph-name="uacute" horiz-adv-x="481" unicode="ú" d="M410 444v-444h-49v71q-22 -34 -59 -57t-82 -23q-74 0 -114 43.5t-40 115.5v294h49v-287q0 -54 28.5 -87t85.5 -33q44 0 79.5 27t52.5 69v311h49zM259 520h-49l83 130h53z"/>
<glyph glyph-name="ucircumflex" horiz-adv-x="481" unicode="û" d="M410 444v-444h-49v71q-22 -34 -59 -57t-82 -23q-74 0 -114 43.5t-40 115.5v294h49v-287q0 -54 28.5 -87t85.5 -33q44 0 79.5 27t52.5 69v311h49zM261 644l92 -131h-46l-68 97l-68 -97h-46l92 131h44z"/>
<glyph glyph-name="udieresis" horiz-adv-x="481" unicode="ü" d="M410 444v-444h-49v71q-22 -34 -59 -57t-82 -23q-74 0 -114 43.5t-40 115.5v294h49v-287q0 -54 28.5 -87t85.5 -33q44 0 79.5 27t52.5 69v311h49zM269 571q0 13 9.5 22.5t22.5 9.5q14 0 23.5 -9.5t9.5 -22.5q0 -14 -9.5 -23.5t-23.5 -9.5t-23 9.5t-9 23.5zM144 571 q0 14 9.5 23t23.5 9q13 0 22.5 -9.5t9.5 -22.5q0 -14 -9 -23.5t-23 -9.5t-23.5 9.5t-9.5 23.5z"/>
<glyph glyph-name="yacute" horiz-adv-x="432" unicode="ý" d="M236 520h-49l83 130h53zM170 -170h-50l72 176l-174 438h53l146 -376l146 376h51z"/>
<glyph glyph-name="thorn" horiz-adv-x="492" unicode="þ" d="M121 319v-194q46 -88 133 -88q69 0 109 51.5t40 133.5t-40 133.5t-109 51.5q-87 0 -133 -88zM121 66v-236h-50v820h50v-272q20 31 57.5 53t80.5 22q93 0 143.5 -66.5t50.5 -164.5t-50.5 -164.5t-143.5 -66.5q-43 0 -80.5 22t-57.5 53z"/>
</font>
</defs>
</svg>
