<?xml version="1.0" encoding="UTF-8" standalone="no"?>
<!DOCTYPE svg  PUBLIC '-//W3C//DTD SVG 1.1//EN'  'http://www.w3.org/Graphics/SVG/1.1/DTD/svg11.dtd'>
<svg xmlns="http://www.w3.org/2000/svg">
<defs>
<font id="MetricHPE-Semibold" horiz-adv-x="520">
<font-face underline-position="-40" font-weight="600" descent="-200" panose-1="2 11 7 3 3 2 2 6 2 3" units-per-em="1000" unicode-range="U+0020-00FE" bbox="-29 -186 839 840" x-height="447" underline-thickness="30" font-family="MetricHPE Semibold" ascent="800" cap-height="614"/>
<missing-glyph horiz-adv-x="1000"/>
<glyph glyph-name=".notdef" horiz-adv-x="1000"/>
<glyph glyph-name=".null" horiz-adv-x="0"/>
<glyph glyph-name="nonmarkingreturn" horiz-adv-x="333"/>
<glyph glyph-name="space" horiz-adv-x="212" unicode=" "/>
<glyph glyph-name="exclam" horiz-adv-x="217" unicode="!" d="M63 198l-30 416h151l-30 -416h-91zM30 70q0 33 22.5 55.5t55.5 22.5t56 -22.5t23 -55.5q0 -32 -23 -54.5t-56 -22.5t-55.5 22.5t-22.5 54.5z"/>
<glyph glyph-name="quotedbl" horiz-adv-x="327" unicode='&quot;' d="M188 366v248h101v-248h-101zM38 366v248h101v-248h-101z"/>
<glyph glyph-name="numbersign" horiz-adv-x="616" unicode="#" d="M263 369l-30 -124h118l30 124h-118zM552 245l-18 -86h-104l-38 -159h-99l38 159h-118l-38 -159h-97l38 159h-96l19 86h97l30 124h-102l18 86h104l38 159h98l-39 -159h118l39 159h98l-38 -159h96l-19 -86h-97l-30 -124h102z"/>
<glyph glyph-name="dollar" d="M208 -89v95q-90 9 -150 48v121q87 -65 187 -65q104 0 104 63q0 27 -16 41.5t-52 28.5l-87 28q-71 24 -107.5 63t-36.5 107q0 67 43.5 110t114.5 55v92h106v-92q66 -8 122 -42v-120q-84 61 -174 61q-42 0 -67 -14.5t-25 -43.5q0 -25 15 -38.5t49 -25.5l92 -31 q74 -26 108.5 -68t34.5 -106q0 -68 -42 -111t-113 -57v-99h-106z" unicode="$"/>
<glyph glyph-name="percent" d="M31 0l375 614h83l-375 -614h-83zM429 113q0 21 -14.5 35.5t-35.5 14.5q-22 0 -37 -14.5t-15 -35.5q0 -22 15 -37t37 -15q21 0 35.5 15t14.5 37zM500 113q0 -51 -35.5 -87t-85.5 -36q-52 0 -87.5 36t-35.5 87q0 50 35.5 85.5t87.5 35.5q50 0 85.5 -35.5t35.5 -85.5z M91 501q0 -21 14.5 -35.5t35.5 -14.5q22 0 37 14.5t15 35.5q0 22 -15 37t-37 15q-21 0 -35.5 -15t-14.5 -37zM20 501q0 51 35.5 87t85.5 36q52 0 87.5 -36t35.5 -87q0 -50 -35.5 -85.5t-87.5 -35.5q-50 0 -85.5 35.5t-35.5 85.5z" unicode="%"/>
<glyph glyph-name="ampersand" horiz-adv-x="607" unicode="&amp;" d="M245 89q53 0 95 31l-138 150q-52 -27 -52 -88q0 -41 25.5 -67t69.5 -26zM289 522q-32 0 -52.5 -17t-20.5 -46q0 -16 8.5 -33.5t16.5 -27.5t26 -30l139 -154q16 45 18 103h112q-2 -101 -55 -186l119 -131h-150l-43 47q-73 -57 -163 -57q-94 0 -151.5 53t-57.5 139 q0 51 27.5 94t73.5 68q-40 55 -40 114q0 75 52.5 120.5t135.5 45.5q80 0 137 -41v-117q-63 56 -132 56z"/>
<glyph glyph-name="quotesingle" horiz-adv-x="182" unicode="&apos;" d="M38 366v248h106v-248h-106z"/>
<glyph glyph-name="parenleft" horiz-adv-x="325" unicode="(" d="M30 283q0 139 74 237.5t201 129.5v-125q-71 -19 -114 -83t-43 -159t43 -159t114 -83v-125q-127 31 -201 129.5t-74 237.5z"/>
<glyph glyph-name="parenright" horiz-adv-x="325" unicode=")" d="M295 283q0 -139 -74 -237.5t-201 -129.5v125q71 19 114 83t43 159t-43 159t-114 83v125q127 -31 201 -129.5t74 -237.5z"/>
<glyph glyph-name="asterisk" horiz-adv-x="346" unicode="*" d="M109 500l-82 47l32 56l82 -48v95h64v-95l82 48l32 -56l-83 -47l83 -47l-32 -56l-82 48v-95h-64v95l-82 -48l-32 56z"/>
<glyph glyph-name="plus" d="M212 515h96v-168h168v-96h-168v-167h-96v167h-168v96h168v168z" unicode="+"/>
<glyph glyph-name="comma" horiz-adv-x="210" unicode="," d="M14 -109l73 112q-26 5 -43 24t-17 48q0 33 22.5 54.5t55.5 21.5q34 0 56 -22.5t22 -62.5q0 -42 -32 -90l-57 -85h-80z"/>
<glyph glyph-name="hyphen" horiz-adv-x="317" unicode="-" d="M38 208v108h241v-108h-241z"/>
<glyph glyph-name="period" horiz-adv-x="210" unicode="." d="M27 73q0 34 22.5 56.5t55.5 22.5t55.5 -22.5t22.5 -56.5t-22.5 -57t-55.5 -23t-55.5 23t-22.5 57z"/>
<glyph glyph-name="slash" horiz-adv-x="373" unicode="/" d="M5 -84l248 734h115l-248 -734h-115z"/>
<glyph glyph-name="zero" d="M260 510q-57 0 -84 -55.5t-27 -147.5t27 -147.5t84 -55.5q56 0 83 55.5t27 147.5t-27 147.5t-83 55.5zM260 -10q-107 0 -171 87.5t-64 229.5t64 229.5t171 87.5t171 -87.5t64 -229.5t-64 -229.5t-171 -87.5z" unicode="0"/>
<glyph glyph-name="one" d="M62 0v111h157v357l-155 -78v126l198 98h81v-503h138v-111h-419z" unicode="1"/>
<glyph glyph-name="two" d="M250 111h212v-111h-432v4l179 234q37 48 53 70t30.5 55t14.5 63q0 37 -22.5 58.5t-65.5 21.5q-85 0 -173 -80v125q35 32 86.5 52.5t109.5 20.5q89 0 141.5 -49.5t52.5 -132.5q0 -38 -17.5 -80.5t-37 -73t-56.5 -79.5z" unicode="2"/>
<glyph glyph-name="three" d="M60 502v112h400v-3l-137 -242q65 -18 102.5 -64.5t37.5 -111.5q0 -92 -65.5 -148t-159.5 -56q-108 0 -183 52v124q76 -68 172 -68q54 0 86 24t32 71q0 51 -47.5 78t-121.5 27h-8v3l114 202h-222z" unicode="3"/>
<glyph glyph-name="four" d="M343 614l-162 -390h123v131h113v-131h82v-105h-82v-119h-113v119h-287v4l205 491h121z" unicode="4"/>
<glyph glyph-name="five" d="M238 397q100 0 165 -54t65 -149q0 -94 -67 -149t-172 -55q-99 0 -171 50v124q72 -67 162 -67q55 0 92 25t37 72q0 46 -37.5 72t-94.5 26q-72 0 -138 -26v348h356v-112h-255v-111q22 6 58 6z" unicode="5"/>
<glyph glyph-name="six" d="M366 209q0 46 -30 77t-76 31q-45 0 -75 -31.5t-30 -76.5q0 -46 30 -77t75 -31q46 0 76 31t30 77zM260 -10q-96 0 -158.5 62.5t-62.5 156.5q0 80 61 184l128 221h134l-114 -199q12 5 32 5q89 -3 145 -63t56 -148q0 -94 -62.5 -156.5t-158.5 -62.5z" unicode="6"/>
<glyph glyph-name="seven" d="M501 611l-279 -611h-131l231 502h-283v112h462v-3z" unicode="7"/>
<glyph glyph-name="eight" d="M261 -10q-95 0 -158 48t-63 130q0 56 30.5 95t76.5 52q-40 17 -64 53t-24 83q0 81 58.5 127t143.5 46q86 0 145 -46t59 -127q0 -47 -24.5 -83t-64.5 -53q46 -13 77 -52t31 -95q0 -82 -63.5 -130t-159.5 -48zM261 369q36 0 61.5 21t25.5 56q0 36 -25.5 57.5t-61.5 21.5 q-35 0 -60 -21.5t-25 -57.5q0 -35 25 -56t60 -21zM261 91q44 0 72.5 23.5t28.5 63.5t-28.5 63.5t-72.5 23.5q-43 0 -71 -23.5t-28 -63.5t28.5 -63.5t70.5 -23.5z" unicode="8"/>
<glyph glyph-name="nine" d="M154 405q0 -46 30 -77t76 -31q45 0 75 31.5t30 76.5q0 46 -30 77t-75 31q-46 0 -76 -31t-30 -77zM260 624q96 0 158.5 -62.5t62.5 -156.5q0 -80 -61 -184l-128 -221h-134l113 198q-9 -4 -31 -4q-89 3 -145 63t-56 148q0 94 62.5 156.5t158.5 62.5z" unicode="9"/>
<glyph glyph-name="colon" horiz-adv-x="210" unicode=":" d="M27 358q0 34 22.5 56.5t55.5 22.5t55.5 -22.5t22.5 -56.5t-22.5 -57t-55.5 -23t-55.5 23t-22.5 57zM27 73q0 34 22.5 56.5t55.5 22.5t55.5 -22.5t22.5 -56.5t-22.5 -57t-55.5 -23t-55.5 23t-22.5 57z"/>
<glyph glyph-name="semicolon" horiz-adv-x="210" unicode=";" d="M27 358q0 34 22.5 56.5t55.5 22.5t55.5 -22.5t22.5 -56.5t-22.5 -57t-55.5 -23t-55.5 23t-22.5 57zM14 -109l73 112q-26 5 -43 24t-17 48q0 33 22.5 54.5t55.5 21.5q34 0 56 -22.5t22 -62.5q0 -42 -32 -90l-57 -85h-80z"/>
<glyph glyph-name="less" d="M96 236v123l328 152v-108l-240 -106l240 -105v-109z" unicode="&lt;"/>
<glyph glyph-name="equal" d="M44 338v88h431v-88h-431zM44 175v87h431v-87h-431z" unicode="="/>
<glyph glyph-name="greater" d="M424 359v-123l-329 -153v109l240 105l-240 106v108z" unicode="&gt;"/>
<glyph glyph-name="question" horiz-adv-x="428" unicode="?" d="M131 70q0 34 22.5 56t55.5 22q34 0 57 -22t23 -56q0 -32 -23 -54.5t-57 -22.5q-33 0 -55.5 22.5t-22.5 54.5zM205 314q7 8 24.5 27t25 28.5t15 26t7.5 33.5q0 74 -86 74q-87 0 -171 -78v126q78 73 193 73q89 0 142 -48.5t53 -131.5q0 -35 -18 -71t-31 -50.5t-48 -53.5 q-35 -38 -37 -71h-122q1 35 12 58.5t41 57.5z"/>
<glyph glyph-name="at" horiz-adv-x="768" unicode="@" d="M430 166l18 100q-5 16 -20.5 26.5t-36.5 10.5q-38 0 -62.5 -33t-24.5 -79q0 -29 15 -47.5t43 -18.5q42 0 68 41zM574 386l-41 -236q-1 -6 -1 -16q0 -31 31 -31q46 0 74 46t28 125q0 104 -72 164t-186 60q-133 0 -217 -85.5t-84 -222.5q0 -61 18.5 -109t48.5 -78 t70.5 -49.5t81 -27.5t83.5 -8q116 0 224 48v-73q-94 -47 -224 -47q-76 0 -143 20.5t-122 60.5t-87 108t-32 155q0 161 107 271t276 110q148 0 242 -84.5t94 -212.5q0 -117 -59 -180t-144 -63q-76 0 -112 53q-14 -24 -41 -38t-56 -14q-62 0 -99 43t-37 108q0 86 52.5 149 t132.5 63q28 0 51.5 -10.5t33.5 -26.5l6 28h103z"/>
<glyph glyph-name="A" horiz-adv-x="627" unicode="A" d="M312 460l-75 -204h150zM250 614h127l235 -614h-130l-55 148h-230l-54 -148h-128z"/>
<glyph glyph-name="B" horiz-adv-x="553" unicode="B" d="M182 262v-154h121q44 0 68 20.5t24 56.5t-23.5 56.5t-68.5 20.5h-121zM182 362h104q93 0 93 73q0 71 -93 71h-104v-144zM420 317q44 -14 72 -53.5t28 -89.5q0 -84 -54.5 -129t-151.5 -45h-255v614h235q98 0 152.5 -43t54.5 -124q0 -48 -23 -82.5t-58 -47.5z"/>
<glyph glyph-name="C" horiz-adv-x="538" unicode="C" d="M29 307q0 142 85.5 229.5t219.5 87.5q96 0 160 -48v-129q-69 60 -154 60q-83 0 -132.5 -54.5t-49.5 -145.5q0 -90 50 -144.5t132 -54.5q86 0 154 59v-129q-64 -48 -160 -48q-134 0 -219.5 87.5t-85.5 229.5z"/>
<glyph glyph-name="D" horiz-adv-x="609" unicode="D" d="M59 0v614h217q139 0 221 -83t82 -224t-82 -224t-221 -83h-217zM186 113h85q87 0 134 52t47 142q0 91 -47 143t-134 52h-85v-389z"/>
<glyph glyph-name="E" horiz-adv-x="516" unicode="E" d="M59 614h417v-112h-291v-134h264v-109h-264v-146h291v-113h-417v614z"/>
<glyph glyph-name="F" horiz-adv-x="500" unicode="F" d="M186 0h-127v614h409v-112h-282v-156h261v-111h-261v-235z"/>
<glyph glyph-name="G" horiz-adv-x="597" unicode="G" d="M335 104q64 0 103 32v93h-104v105h220v-257q-86 -87 -222 -87q-138 0 -220.5 87.5t-82.5 228.5q0 142 88.5 230t227.5 88q106 0 176 -51v-128q-77 62 -176 62q-83 0 -135 -55.5t-52 -145.5t48 -146t129 -56z"/>
<glyph glyph-name="H" horiz-adv-x="652" unicode="H" d="M465 614h128v-614h-128v258h-278v-258h-128v614h128v-244h278v244z"/>
<glyph glyph-name="I" horiz-adv-x="245" unicode="I" d="M187 614v-614h-128v614h128z"/>
<glyph glyph-name="J" horiz-adv-x="410" unicode="J" d="M27 25v125q65 -43 120 -43q47 0 66.5 28.5t19.5 93.5v385h129v-400q0 -224 -204 -224q-75 0 -131 35z"/>
<glyph glyph-name="K" horiz-adv-x="585" unicode="K" d="M187 614v-264l224 264h154l-255 -294l264 -320h-157l-230 278v-278h-128v614h128z"/>
<glyph glyph-name="L" horiz-adv-x="507" unicode="L" d="M59 0v614h128v-501h286v-113h-414z"/>
<glyph glyph-name="M" horiz-adv-x="724" unicode="M" d="M365 132h-4l-177 264v-396h-125v614h119l186 -290l185 290h117v-614h-126v396z"/>
<glyph glyph-name="N" horiz-adv-x="632" unicode="N" d="M573 614v-614h-101l-290 409v-409h-123v614h120l271 -388v388h123z"/>
<glyph glyph-name="O" horiz-adv-x="640" unicode="O" d="M481 307q0 91 -44.5 147t-117.5 56q-72 0 -116 -56t-44 -147t44 -147t116 -56q73 0 117.5 56t44.5 147zM610 307q0 -138 -81.5 -227.5t-209.5 -89.5t-209 89.5t-81 227.5q0 139 81 228t209 89t209.5 -89.5t81.5 -227.5z"/>
<glyph glyph-name="P" horiz-adv-x="552" unicode="P" d="M399 413q0 43 -25 67.5t-73 24.5h-115v-183h115q48 0 73 25t25 66zM309 213h-123v-213h-127v614h250q99 0 157.5 -52.5t58.5 -148.5t-58.5 -148t-157.5 -52z"/>
<glyph glyph-name="Q" horiz-adv-x="639" unicode="Q" d="M481 307q0 91 -44.5 147t-117.5 56q-72 0 -116 -56t-44 -147t44 -148.5t116 -57.5q31 0 53 7l-50 63l82 63l48 -60q29 50 29 133zM494 -43l-50 62q-56 -29 -125 -29q-128 0 -209 89.5t-81 227.5q0 139 81 228t209 89t209.5 -89.5t81.5 -227.5q0 -135 -83 -226l49 -60z "/>
<glyph glyph-name="R" horiz-adv-x="563" unicode="R" d="M186 505v-171h118q47 0 72 23t25 62q0 40 -25 63t-72 23h-118zM253 229h-67v-229h-127v614h253q99 0 157 -51t58 -144q0 -72 -37 -118.5t-103 -62.5l162 -238h-144z"/>
<glyph glyph-name="S" horiz-adv-x="499" unicode="S" d="M38 42v126q91 -68 196 -68q109 0 109 67q0 28 -17 43t-55 29l-90 30q-74 24 -112.5 65.5t-38.5 113.5q0 83 62 129.5t156 46.5q106 0 186 -48v-125q-87 64 -182 64q-43 0 -70 -15.5t-27 -45.5q0 -27 16.5 -41t51.5 -26l96 -33q77 -26 113.5 -70t36.5 -112 q0 -87 -65.5 -134.5t-167.5 -47.5q-116 0 -198 52z"/>
<glyph glyph-name="T" horiz-adv-x="575" unicode="T" d="M26 502v112h524v-112h-198v-502h-129v502h-197z"/>
<glyph glyph-name="U" horiz-adv-x="610" unicode="U" d="M305 -10q-117 0 -186 66.5t-69 190.5v367h128v-354q0 -155 127 -155t127 155v354h128v-367q0 -124 -68.5 -190.5t-186.5 -66.5z"/>
<glyph glyph-name="V" horiz-adv-x="614" unicode="V" d="M369 0h-124l-230 614h135l159 -444l159 444h132z"/>
<glyph glyph-name="W" horiz-adv-x="794" unicode="W" d="M349 614h100l106 -413l101 413h126l-160 -614h-117l-108 405l-108 -405h-117l-160 614h129l100 -413z"/>
<glyph glyph-name="X" horiz-adv-x="586" unicode="X" d="M569 614l-203 -299l213 -315h-144l-144 213l-143 -213h-141l213 313l-203 301h145l132 -199l135 199h140z"/>
<glyph glyph-name="Y" horiz-adv-x="593" unicode="Y" d="M299 354l148 260h135l-223 -381v-233h-127v233l-221 381h139z"/>
<glyph glyph-name="Z" horiz-adv-x="545" unicode="Z" d="M511 113v-113h-484v4l290 498h-277v112h475v-4l-288 -497h284z"/>
<glyph glyph-name="bracketleft" horiz-adv-x="322" unicode="[" d="M175 543v-520h127v-107h-243v734h243v-107h-127z"/>
<glyph glyph-name="backslash" horiz-adv-x="373" unicode="\" d="M120 650l248 -734h-115l-248 734h115z"/>
<glyph glyph-name="bracketright" horiz-adv-x="322" unicode="]" d="M147 23v520h-127v107h243v-734h-243v107h127z"/>
<glyph glyph-name="asciicircum" horiz-adv-x="409" unicode="^" d="M148 614h113l138 -220h-116l-78 126l-79 -126h-116z"/>
<glyph glyph-name="underscore" horiz-adv-x="381" unicode="_" d="M20 -143v101h341v-101h-341z"/>
<glyph glyph-name="grave" horiz-adv-x="500" unicode="`" d="M351 508h-113l-89 142h123z"/>
<glyph glyph-name="a" horiz-adv-x="468" unicode="a" d="M300 122v32q-8 18 -30 28.5t-49 10.5q-32 0 -55.5 -14t-23.5 -41t23 -41t56 -14q27 0 49 10.5t30 28.5zM300 254v25q0 32 -26.5 51t-73.5 19q-67 0 -122 -36v107q59 37 149 37q92 0 142 -45t50 -127v-285h-119v24q-12 -12 -42.5 -22t-65.5 -10q-70 0 -117.5 39t-47.5 106 q0 63 49.5 103t123.5 40q64 0 100 -26z"/>
<glyph glyph-name="b" horiz-adv-x="519" unicode="b" d="M178 297v-147q11 -23 33.5 -37.5t50.5 -14.5q49 0 78 35t29 90t-29 90.5t-78 35.5q-27 0 -50 -14.5t-34 -37.5zM178 37v-37h-125v650h125v-240q16 19 47 33t65 14q94 0 148.5 -67t54.5 -167t-54.5 -166.5t-148.5 -66.5q-34 0 -65 14t-47 33z"/>
<glyph glyph-name="c" horiz-adv-x="405" unicode="c" d="M26 223q0 106 64.5 170t161.5 64q76 0 121 -35v-113q-44 40 -106 40q-51 0 -84.5 -34t-33.5 -92t33.5 -92t84.5 -34q60 0 106 40v-112q-45 -35 -121 -35q-97 0 -161.5 64t-64.5 169z"/>
<glyph glyph-name="d" horiz-adv-x="519" unicode="d" d="M341 150v147q-11 23 -34 37.5t-50 14.5q-49 0 -78 -35.5t-29 -90.5t29 -90t78 -35q28 0 50.5 14.5t33.5 37.5zM341 0v37q-16 -19 -47 -33t-65 -14q-94 0 -148.5 66.5t-54.5 166.5t54.5 167t148.5 67q34 0 65 -14t47 -33v240h125v-650h-125z"/>
<glyph glyph-name="e" horiz-adv-x="460" unicode="e" d="M239 358q-69 0 -90 -82h169q-2 37 -22.5 59.5t-56.5 22.5zM433 195h-288q7 -52 42 -77.5t87 -25.5q67 0 128 39v-102q-53 -39 -147 -39q-103 0 -166 62t-63 168q0 105 59 171t151 66q95 0 146 -60t51 -162v-40z"/>
<glyph glyph-name="f" horiz-adv-x="326" unicode="f" d="M316 647v-105q-17 12 -44 12q-61 0 -61 -62v-45h93v-100h-93v-347h-122v347h-73v100h73v53q0 75 43 117t115 42q42 0 69 -12z"/>
<glyph glyph-name="g" horiz-adv-x="515" unicode="g" d="M337 156v151q-11 20 -33.5 33t-49.5 13q-49 0 -76.5 -34t-27.5 -88t28 -87.5t76 -33.5q27 0 49.5 13t33.5 33zM337 37v14q-39 -45 -109 -45q-93 0 -147.5 65t-54.5 160q0 96 54.5 161t147.5 65q70 0 109 -45v35h124v-398q0 -114 -70 -169t-173 -55q-95 0 -154 38v122 q63 -55 152 -55q53 0 87 27.5t34 79.5z"/>
<glyph glyph-name="h" horiz-adv-x="505" unicode="h" d="M54 0v650h124v-244q44 51 120 51q75 0 116.5 -45t41.5 -120v-292h-124v266q0 36 -18.5 57.5t-54.5 21.5q-29 0 -51.5 -16.5t-29.5 -45.5v-283h-124z"/>
<glyph glyph-name="i" horiz-adv-x="232" unicode="i" d="M189 576q0 -31 -21.5 -51t-51.5 -20q-31 0 -52.5 20t-21.5 51q0 30 22 50.5t52 20.5t51.5 -20.5t21.5 -50.5zM178 447v-447h-124v447h124z"/>
<glyph glyph-name="j" horiz-adv-x="230" unicode="j" d="M189 576q0 -31 -21.5 -51t-51.5 -20q-31 0 -52.5 20t-21.5 51q0 30 22 50.5t52 20.5t51.5 -20.5t21.5 -50.5zM178 447v-465q0 -75 -40 -116t-116 -41q-33 0 -48 5v99q21 -3 27 -3q53 0 53 57v464h124z"/>
<glyph glyph-name="k" horiz-adv-x="484" unicode="k" d="M294 242l190 -242h-145l-161 206v-206h-124v650h124v-380l153 177h149z"/>
<glyph glyph-name="l" horiz-adv-x="232" unicode="l" d="M178 650v-650h-124v650h124z"/>
<glyph glyph-name="m" horiz-adv-x="742" unicode="m" d="M411 400q52 57 135 57q69 0 108 -44.5t39 -120.5v-292h-124v266q0 37 -16.5 58.5t-47.5 21.5q-25 0 -44 -15t-25 -43v-288h-125v266q0 80 -63 80q-25 0 -44.5 -15.5t-25.5 -42.5v-288h-124v447h124v-37q37 47 113 47q77 0 120 -57z"/>
<glyph glyph-name="n" horiz-adv-x="505" unicode="n" d="M54 0v447h124v-41q44 51 120 51q75 0 116.5 -45t41.5 -120v-292h-124v266q0 36 -18.5 57.5t-54.5 21.5q-29 0 -51.5 -16.5t-29.5 -45.5v-283h-124z"/>
<glyph glyph-name="o" horiz-adv-x="489" unicode="o" d="M341 223q0 58 -25.5 93.5t-70.5 35.5t-70.5 -35.5t-25.5 -93.5q0 -57 25.5 -92.5t70.5 -35.5t70.5 35.5t25.5 92.5zM464 223q0 -103 -61 -168t-158 -65t-158 65t-61 168q0 104 61 169t158 65t158 -65t61 -169z"/>
<glyph glyph-name="p" horiz-adv-x="519" unicode="p" d="M178 297v-147q11 -23 34 -37.5t50 -14.5q49 0 78 35t29 90t-29 90.5t-78 35.5q-27 0 -49.5 -14.5t-34.5 -37.5zM178 37v-202h-124v612h124v-37q16 19 47 33t65 14q94 0 149 -67.5t55 -166.5t-55 -166t-149 -67q-34 0 -65 14t-47 33z"/>
<glyph glyph-name="q" horiz-adv-x="519" unicode="q" d="M341 150v147q-12 23 -34.5 37.5t-49.5 14.5q-49 0 -78 -35.5t-29 -90.5t29 -90t78 -35q27 0 50 14.5t34 37.5zM341 -165v202q-16 -19 -47 -33t-65 -14q-94 0 -149 67t-55 166t55 166.5t149 67.5q34 0 65 -14t47 -33v37h124v-612h-124z"/>
<glyph glyph-name="r" horiz-adv-x="351" unicode="r" d="M325 449v-124q-25 15 -62 15q-32 0 -55 -16.5t-30 -46.5v-277h-124v447h124v-44q32 54 100 54q33 0 47 -8z"/>
<glyph glyph-name="s" horiz-adv-x="406" unicode="s" d="M35 35v115q32 -29 74 -45.5t80 -16.5q66 0 66 38q0 17 -12 26t-39 18l-43 12q-62 17 -94.5 48.5t-32.5 86.5q0 64 49 102t126 38q81 0 143 -40v-113q-69 55 -137 55q-27 0 -43.5 -10t-16.5 -28q0 -17 11 -25.5t37 -16.5l50 -15q64 -18 94 -50.5t30 -85.5q0 -66 -51 -102 t-133 -36q-99 0 -158 45z"/>
<glyph glyph-name="t" horiz-adv-x="346" unicode="t" d="M230 347v-347h-124v347h-85v100h85v121h124v-121h95v-100h-95z"/>
<glyph glyph-name="u" horiz-adv-x="503" unicode="u" d="M450 447v-447h-124v41q-46 -51 -120 -51t-115.5 45t-41.5 120v292h124v-267q0 -37 18 -58t54 -21q29 0 51 16.5t29 45.5v284h125z"/>
<glyph glyph-name="v" horiz-adv-x="485" unicode="v" d="M302 0h-120l-169 447h130l103 -297l101 297h125z"/>
<glyph glyph-name="w" horiz-adv-x="672" unicode="w" d="M385 447l74 -285l80 285h120l-136 -447h-114l-73 274l-73 -274h-114l-136 447h124l80 -285l73 285h95z"/>
<glyph glyph-name="x" horiz-adv-x="477" unicode="x" d="M459 447l-153 -216l163 -231h-137l-96 140l-97 -140h-130l161 228l-152 219h137l86 -127l88 127h130z"/>
<glyph glyph-name="y" horiz-adv-x="487" unicode="y" d="M241 -165h-122l65 163l-171 449h131l103 -297l102 297h125z"/>
<glyph glyph-name="z" horiz-adv-x="436" unicode="z" d="M404 100v-100h-382v4l201 343h-190v100h371v-4l-197 -343h197z"/>
<glyph glyph-name="braceleft" horiz-adv-x="353" unicode="{" d="M213 200v-148q0 -29 29 -29h91v-107h-108q-57 0 -93 36t-36 94v154q0 29 -29 29h-47v108h47q29 0 29 29v154q0 58 36 94t93 36h108v-107h-91q-29 0 -29 -29v-148q0 -54 -47 -83q47 -29 47 -83z"/>
<glyph glyph-name="bar" horiz-adv-x="228" unicode="|" d="M59 -84v734h110v-734h-110z"/>
<glyph glyph-name="braceright" horiz-adv-x="353" unicode="}" d="M140 52v148q0 54 47 83q-47 29 -47 83v148q0 29 -29 29h-91v107h108q57 0 93 -36t36 -94v-154q0 -29 29 -29h47v-108h-47q-29 0 -29 -29v-154q0 -58 -36 -94t-93 -36h-108v107h91q29 0 29 29z"/>
<glyph glyph-name="asciitilde" horiz-adv-x="428" unicode="~" d="M304 347h88q0 -72 -28 -112t-78 -40q-27 0 -50.5 14.5t-42 29.5t-33.5 15q-36 0 -36 -55h-88q0 72 28 112t78 40q33 0 71.5 -29.5t54.5 -29.5q36 0 36 55z"/>
<glyph glyph-name="exclamdown" horiz-adv-x="224" unicode="¡" d="M33 -96l30 416h91l30 -416h-151zM30 448q0 32 22.5 54.5t55.5 22.5t56 -22.5t23 -54.5q0 -33 -23 -55.5t-56 -22.5t-55.5 22.5t-22.5 55.5z"/>
<glyph glyph-name="cent" d="M241 -87v95q-74 19 -119 78.5t-45 146.5t45 147t119 79v93h107v-89q50 -9 79 -31v-113q-44 40 -109 40q-50 0 -83.5 -34t-33.5 -92t33.5 -92t83.5 -34q63 0 109 40v-112q-31 -24 -79 -32v-90h-107z" unicode="¢"/>
<glyph glyph-name="sterling" d="M55 254v98h72v58q0 97 60 155.5t159 58.5q71 0 117 -30v-111q-48 31 -109 31q-50 0 -78.5 -31t-28.5 -89v-42h130v-98h-130v-60q0 -63 -21 -91h252v-103h-423v103h52q20 35 20 91v60h-72z" unicode="£"/>
<glyph glyph-name="yen" d="M47 256v84h106l-139 274h134l115 -237l113 237h130l-141 -274h106v-84h-149v-56h149v-84h-149v-116h-126v116h-149v84h149v56h-149z" unicode="¥"/>
<glyph glyph-name="section" horiz-adv-x="473" unicode="§" d="M93 422q-21 29 -21 69q0 60 48 96.5t124 36.5q83 0 145 -40v-112q-67 54 -138 54q-27 0 -43 -10.5t-16 -28.5q0 -26 45 -53l107 -68q54 -33 81.5 -66t27.5 -80q0 -80 -73 -119q21 -29 21 -68q0 -59 -48.5 -96t-123.5 -37q-84 0 -146 40v112q69 -54 139 -54q27 0 43 10.5 t16 28.5q0 26 -45 53l-108 68q-53 34 -80.5 66.5t-27.5 79.5q0 37 19 68.5t54 49.5zM289 276l-121 80q-36 -8 -36 -46q0 -28 52 -62l121 -80q36 8 36 46q0 28 -52 62z"/>
<glyph glyph-name="dieresis" horiz-adv-x="500" unicode="¨" d="M265 570q0 28 19.5 47.5t46.5 19.5t47 -19.5t20 -47.5q0 -27 -20 -46.5t-47 -19.5t-46.5 19.5t-19.5 46.5zM101 570q0 28 19.5 47.5t47.5 19.5q27 0 46.5 -19.5t19.5 -47.5q0 -27 -19.5 -46.5t-46.5 -19.5q-28 0 -47.5 19.5t-19.5 46.5z"/>
<glyph glyph-name="copyright" horiz-adv-x="704" unicode="©" d="M167 309q0 90 55 144.5t145 54.5q58 0 97 -25v-99q-40 30 -88 30t-77 -28.5t-29 -76.5q0 -47 29 -75.5t77 -28.5q49 0 88 29v-99q-39 -25 -97 -25q-90 0 -145 54.5t-55 144.5zM622 307q0 116 -79 193.5t-191 77.5t-191 -77.5t-79 -193.5t79 -193.5t191 -77.5t191 77.5 t79 193.5zM669 307q0 -136 -92.5 -226.5t-224.5 -90.5t-224.5 90.5t-92.5 226.5t92.5 226.5t224.5 90.5t224.5 -90.5t92.5 -226.5z"/>
<glyph glyph-name="ordfeminine" horiz-adv-x="308" unicode="ª" d="M189 401v18q-10 22 -44 22q-17 0 -30 -8t-13 -23t12.5 -22.5t30.5 -7.5q34 0 44 21zM189 488v11q0 19 -17 30.5t-48 11.5q-41 0 -80 -23v83q44 24 105 24q67 0 101.5 -31t34.5 -90v-187h-96v15q-21 -21 -71 -21q-46 0 -77.5 26t-31.5 71q0 44 32.5 70.5t82.5 26.5 q40 0 65 -17z"/>
<glyph glyph-name="guillemotleft" horiz-adv-x="420" unicode="«" d="M395 61h-106l-92 161l92 161h106l-92 -161zM223 61h-106l-92 161l92 161h106l-92 -161z"/>
<glyph glyph-name="registered" horiz-adv-x="407" unicode="®" d="M237 471q0 22 -25 22h-30v-43h30q25 0 25 21zM199 407h-17v-61h-54v192h90q33 0 52 -18t19 -49q0 -45 -37 -58l44 -67h-60zM351 441q0 66 -43 109t-105 43t-105 -43t-43 -109t43 -109t105 -43t105 43t43 109zM384 441q0 -78 -53 -130.5t-128 -52.5t-128 52.5t-53 130.5 t53 130.5t128 52.5t128 -52.5t53 -130.5z"/>
<glyph glyph-name="macron" horiz-adv-x="500" unicode="¯" d="M131 516v91h237v-91h-237z"/>
<glyph glyph-name="degree" horiz-adv-x="357" unicode="°" d="M314 487q0 -56 -39.5 -96t-95.5 -40t-95.5 40t-39.5 96q0 57 39.5 97t95.5 40t95.5 -40t39.5 -97zM119 487q0 -25 17.5 -43t42.5 -18q24 0 41.5 18t17.5 43t-17.5 43.5t-41.5 18.5q-25 0 -42.5 -18t-17.5 -44z"/>
<glyph glyph-name="plusminus" d="M50 62v91h419v-91h-419zM214 548h91v-130h164v-90h-164v-130h-91v130h-164v90h164v130z" unicode="±"/>
<glyph glyph-name="twosuperior" horiz-adv-x="291" unicode="²" d="M172 353h99v-80h-254v2l99 132q21 27 28.5 37.5t14.5 25.5t7 28q0 17 -11.5 27t-31.5 10q-41 0 -95 -44v89q48 39 120 39q51 0 81 -28t30 -74q0 -20 -9.5 -43t-18 -36.5t-28.5 -41.5z"/>
<glyph glyph-name="threesuperior" horiz-adv-x="278" unicode="³" d="M25 533v81h230v-2l-67 -132q66 -28 66 -96q0 -54 -36.5 -85.5t-90.5 -31.5q-59 0 -103 29v85q43 -38 92 -38q51 0 51 40q0 46 -71 46h-12v2l52 102h-111z"/>
<glyph glyph-name="acute" horiz-adv-x="500" unicode="´" d="M261 508h-112l79 142h123z"/>
<glyph glyph-name="paragraph" horiz-adv-x="538" unicode="¶" d="M233 -90v349q-88 0 -154 45.5t-66 132.5t66 132t154 45h91v-704h-91zM388 -90v704h91v-704h-91z"/>
<glyph glyph-name="periodcentered" horiz-adv-x="214" unicode="·" d="M29 263q0 34 22.5 56.5t55.5 22.5t55.5 -22.5t22.5 -56.5t-22.5 -57t-55.5 -23t-55.5 23t-22.5 57z"/>
<glyph glyph-name="cedilla" horiz-adv-x="500" unicode="¸" d="M265 -186h-110l70 139h114z"/>
<glyph glyph-name="onesuperior" horiz-adv-x="237" unicode="¹" d="M196 614v-341h-91v237l-87 -43v92l115 55h63z"/>
<glyph glyph-name="ordmasculine" horiz-adv-x="324" unicode="º" d="M214 468q0 32 -14 52.5t-38 20.5t-38 -20.5t-14 -52.5q0 -33 14 -53t38 -20t38 20t14 53zM315 468q0 -70 -42.5 -114t-110.5 -44t-111 44t-43 114q0 69 43 113t111 44t110.5 -44t42.5 -113z"/>
<glyph glyph-name="guillemotright" horiz-adv-x="420" unicode="»" d="M131 61h-106l92 161l-92 161h106l92 -161zM303 61h-106l92 161l-92 161h106l92 -161z"/>
<glyph glyph-name="onequarter" horiz-adv-x="702" unicode="¼" d="M209 614v-341h-90v237l-88 -43v92l115 55h63zM582 341l-93 -204h52v57h79v-57h42v-75h-42v-62h-79v62h-167v26l118 253h90zM599 614l-431 -614h-90l431 614h90z"/>
<glyph glyph-name="onehalf" horiz-adv-x="720" unicode="½" d="M580 80h99v-80h-254v2l99 132q22 28 29 38t14 25t7 28q0 17 -11.5 27t-31.5 10q-39 0 -95 -43v88q46 39 120 39q51 0 81 -27.5t30 -73.5q0 -20 -9 -43t-18.5 -37.5t-28.5 -41.5zM209 614v-341h-90v237l-88 -43v92l115 55h63zM599 614l-431 -614h-90l431 614h90z"/>
<glyph glyph-name="threequarters" horiz-adv-x="718" unicode="¾" d="M598 341l-93 -204h52v57h79v-57h42v-75h-42v-62h-79v62h-167v26l117 253h91zM46 533v81h231v-2l-68 -132q66 -28 66 -96q0 -54 -36.5 -85.5t-90.5 -31.5q-60 0 -103 29v85q43 -38 92 -38q51 0 51 40q0 46 -71 46h-12v2l52 102h-111zM615 614l-431 -614h-90l431 614h90z "/>
<glyph glyph-name="questiondown" horiz-adv-x="428" unicode="¿" d="M297 448q0 -34 -22.5 -56t-55.5 -22q-34 0 -57 22t-23 56q0 32 23 54.5t57 22.5q33 0 55.5 -22.5t22.5 -54.5zM223 204q-7 -8 -24.5 -27t-25 -28.5t-15 -26t-7.5 -33.5q0 -74 86 -74q87 0 171 78v-126q-78 -73 -193 -73q-89 0 -142 48.5t-53 131.5q0 35 18 71t31 50.5 t48 53.5q35 38 37 71h122q-1 -35 -12 -58.5t-41 -57.5z"/>
<glyph glyph-name="Agrave" horiz-adv-x="627" unicode="À" d="M312 460l-75 -204h150zM379 669h-122l-93 122h135zM250 614h127l235 -614h-130l-55 148h-230l-54 -148h-128z"/>
<glyph glyph-name="Aacute" horiz-adv-x="627" unicode="Á" d="M312 460l-75 -204h150zM368 669h-122l80 122h135zM250 614h127l235 -614h-130l-55 148h-230l-54 -148h-128z"/>
<glyph glyph-name="Acircumflex" horiz-adv-x="627" unicode="Â" d="M312 460l-75 -204h150zM365 796l100 -127h-105l-47 54l-47 -54h-105l100 127h104zM250 614h127l235 -614h-130l-55 148h-230l-54 -148h-128z"/>
<glyph glyph-name="Atilde" horiz-adv-x="627" unicode="Ã" d="M312 460l-75 -204h150zM391 802h71q0 -63 -21 -101t-64 -38q-26 0 -61.5 21t-51.5 21q-28 0 -29 -39h-71q0 63 21 101t64 38q26 0 61.5 -21t51.5 -21q28 0 29 39zM250 614h127l235 -614h-130l-55 148h-230l-54 -148h-128z"/>
<glyph glyph-name="Adieresis" horiz-adv-x="627" unicode="Ä" d="M164 730q0 29 19 48.5t48 19.5q28 0 47.5 -19.5t19.5 -48.5q0 -27 -19.5 -46.5t-47.5 -19.5t-47.5 19.5t-19.5 46.5zM329 730q0 29 19.5 48.5t47.5 19.5t48 -19.5t20 -48.5q0 -27 -20 -46.5t-48 -19.5t-47.5 19.5t-19.5 46.5zM312 460l-75 -204h150zM250 614h127 l235 -614h-130l-55 148h-230l-54 -148h-128z"/>
<glyph glyph-name="Aring" horiz-adv-x="627" unicode="Å" d="M353 743q0 17 -11.5 28.5t-28.5 11.5q-16 0 -27.5 -11.5t-11.5 -28.5t11 -28t28 -11t28.5 11.5t11.5 27.5zM312 460l-75 -204h150zM412 743q0 -41 -28.5 -69t-70.5 -28t-70.5 28t-28.5 69t28.5 69t70.5 28t70.5 -28t28.5 -69zM250 614h127l235 -614h-130l-55 148h-230 l-54 -148h-128z"/>
<glyph glyph-name="AE" horiz-adv-x="879" unicode="Æ" d="M441 512l-146 -256h146v256zM365 614h474v-112h-272v-134h245v-109h-245v-146h272v-113h-398v148h-208l-84 -148h-134z"/>
<glyph glyph-name="Ccedilla" horiz-adv-x="538" unicode="Ç" d="M319 -186h-110l70 139h114zM29 307q0 142 85.5 229.5t219.5 87.5q96 0 160 -48v-129q-69 60 -154 60q-83 0 -132.5 -54.5t-49.5 -145.5q0 -90 50 -144.5t132 -54.5q86 0 154 59v-129q-64 -48 -160 -48q-134 0 -219.5 87.5t-85.5 229.5z"/>
<glyph glyph-name="Egrave" horiz-adv-x="516" unicode="È" d="M59 614h417v-112h-291v-134h264v-109h-264v-146h291v-113h-417v614zM338 669h-122l-93 122h135z"/>
<glyph glyph-name="Eacute" horiz-adv-x="516" unicode="É" d="M59 614h417v-112h-291v-134h264v-109h-264v-146h291v-113h-417v614zM326 669h-122l80 122h135z"/>
<glyph glyph-name="Ecircumflex" horiz-adv-x="516" unicode="Ê" d="M323 796l100 -127h-105l-47 54l-47 -54h-105l100 127h104zM59 614h417v-112h-291v-134h264v-109h-264v-146h291v-113h-417v614z"/>
<glyph glyph-name="Edieresis" horiz-adv-x="516" unicode="Ë" d="M59 614h417v-112h-291v-134h264v-109h-264v-146h291v-113h-417v614zM287 730q0 29 19.5 48.5t47.5 19.5t48 -19.5t20 -48.5q0 -27 -20 -46.5t-48 -19.5t-47.5 19.5t-19.5 46.5zM122 730q0 29 19 48.5t48 19.5q28 0 47.5 -19.5t19.5 -48.5q0 -27 -19.5 -46.5t-47.5 -19.5 t-47.5 19.5t-19.5 46.5z"/>
<glyph glyph-name="Igrave" horiz-adv-x="245" unicode="Ì" d="M189 669h-122l-93 122h135zM187 614v-614h-128v614h128z"/>
<glyph glyph-name="Iacute" horiz-adv-x="245" unicode="Í" d="M178 669h-122l80 122h135zM187 614v-614h-128v614h128z"/>
<glyph glyph-name="Icircumflex" horiz-adv-x="245" unicode="Î" d="M175 796l100 -127h-105l-47 54l-47 -54h-105l100 127h104zM187 614v-614h-128v614h128z"/>
<glyph glyph-name="Idieresis" horiz-adv-x="245" unicode="Ï" d="M138 730q0 29 19.5 48.5t47.5 19.5t48 -19.5t20 -48.5q0 -27 -20 -46.5t-48 -19.5t-47.5 19.5t-19.5 46.5zM-27 730q0 29 19 48.5t48 19.5q28 0 47.5 -19.5t19.5 -48.5q0 -27 -19.5 -46.5t-47.5 -19.5t-47.5 19.5t-19.5 46.5zM187 614v-614h-128v614h128z"/>
<glyph glyph-name="Eth" horiz-adv-x="626" unicode="Ð" d="M203 113h85q87 0 134 52t47 142q0 91 -47 143t-134 52h-85v-135h103v-103h-103v-151zM25 264v103h51v247h217q139 0 221 -83t82 -224t-82 -224t-221 -83h-217v264h-51z"/>
<glyph glyph-name="Ntilde" horiz-adv-x="632" unicode="Ñ" d="M573 614v-614h-101l-290 409v-409h-123v614h120l271 -388v388h123zM394 802h71q0 -63 -21 -101t-64 -38q-26 0 -61.5 21t-51.5 21q-27 0 -29 -39h-71q0 63 21 101t64 38q26 0 61.5 -21t51.5 -21q27 0 29 39z"/>
<glyph glyph-name="Ograve" horiz-adv-x="640" unicode="Ò" d="M481 307q0 91 -44.5 147t-117.5 56q-72 0 -116 -56t-44 -147t44 -147t116 -56q73 0 117.5 56t44.5 147zM610 307q0 -138 -81.5 -227.5t-209.5 -89.5t-209 89.5t-81 227.5q0 139 81 228t209 89t209.5 -89.5t81.5 -227.5zM386 669h-122l-93 122h135z"/>
<glyph glyph-name="Oacute" horiz-adv-x="640" unicode="Ó" d="M481 307q0 91 -44.5 147t-117.5 56q-72 0 -116 -56t-44 -147t44 -147t116 -56q73 0 117.5 56t44.5 147zM610 307q0 -138 -81.5 -227.5t-209.5 -89.5t-209 89.5t-81 227.5q0 139 81 228t209 89t209.5 -89.5t81.5 -227.5zM374 669h-122l80 122h135z"/>
<glyph glyph-name="Ocircumflex" horiz-adv-x="640" unicode="Ô" d="M371 796l100 -127h-105l-47 54l-47 -54h-105l100 127h104zM481 307q0 91 -44.5 147t-117.5 56q-72 0 -116 -56t-44 -147t44 -147t116 -56q73 0 117.5 56t44.5 147zM610 307q0 -138 -81.5 -227.5t-209.5 -89.5t-209 89.5t-81 227.5q0 139 81 228t209 89t209.5 -89.5 t81.5 -227.5z"/>
<glyph glyph-name="Otilde" horiz-adv-x="640" unicode="Õ" d="M481 307q0 91 -44.5 147t-117.5 56q-72 0 -116 -56t-44 -147t44 -147t116 -56q73 0 117.5 56t44.5 147zM610 307q0 -138 -81.5 -227.5t-209.5 -89.5t-209 89.5t-81 227.5q0 139 81 228t209 89t209.5 -89.5t81.5 -227.5zM397 802h71q0 -63 -21 -101t-64 -38 q-26 0 -61.5 21t-51.5 21q-28 0 -29 -39h-71q0 63 21 101t64 38q26 0 61.5 -21t51.5 -21q28 0 29 39z"/>
<glyph glyph-name="Odieresis" horiz-adv-x="640" unicode="Ö" d="M481 307q0 91 -44.5 147t-117.5 56q-72 0 -116 -56t-44 -147t44 -147t116 -56q73 0 117.5 56t44.5 147zM610 307q0 -138 -81.5 -227.5t-209.5 -89.5t-209 89.5t-81 227.5q0 139 81 228t209 89t209.5 -89.5t81.5 -227.5zM335 730q0 29 19.5 48.5t47.5 19.5t48 -19.5 t20 -48.5q0 -27 -20 -46.5t-48 -19.5t-47.5 19.5t-19.5 46.5zM170 730q0 29 19 48.5t48 19.5q28 0 47.5 -19.5t19.5 -48.5q0 -27 -19.5 -46.5t-47.5 -19.5t-47.5 19.5t-19.5 46.5z"/>
<glyph glyph-name="multiply" d="M194 298l-122 120l67 66l120 -121l121 121l67 -66l-121 -120l121 -121l-67 -67l-121 121l-120 -121l-67 67z" unicode="×"/>
<glyph glyph-name="Oslash" horiz-adv-x="649" unicode="Ø" d="M486 307q0 65 -21 111l-235 -284q39 -30 94 -30q73 0 117.5 56.5t44.5 146.5zM163 307q0 -67 21 -113l236 284q-40 32 -96 32q-72 0 -116.5 -56.5t-44.5 -146.5zM50 31l52 63q-68 87 -68 213q0 139 81 228t209 89q97 0 171 -55l48 58l58 -44l-54 -65q68 -87 68 -211 q0 -138 -81.5 -227.5t-209.5 -89.5q-97 0 -169 53l-47 -56z"/>
<glyph glyph-name="Ugrave" horiz-adv-x="610" unicode="Ù" d="M305 -10q-117 0 -186 66.5t-69 190.5v367h128v-354q0 -155 127 -155t127 155v354h128v-367q0 -124 -68.5 -190.5t-186.5 -66.5zM371 669h-122l-93 122h135z"/>
<glyph glyph-name="Uacute" horiz-adv-x="610" unicode="Ú" d="M305 -10q-117 0 -186 66.5t-69 190.5v367h128v-354q0 -155 127 -155t127 155v354h128v-367q0 -124 -68.5 -190.5t-186.5 -66.5zM360 669h-122l80 122h135z"/>
<glyph glyph-name="Ucircumflex" horiz-adv-x="610" unicode="Û" d="M357 796l100 -127h-105l-47 54l-47 -54h-105l100 127h104zM305 -10q-117 0 -186 66.5t-69 190.5v367h128v-354q0 -155 127 -155t127 155v354h128v-367q0 -124 -68.5 -190.5t-186.5 -66.5z"/>
<glyph glyph-name="Udieresis" horiz-adv-x="610" unicode="Ü" d="M305 -10q-117 0 -186 66.5t-69 190.5v367h128v-354q0 -155 127 -155t127 155v354h128v-367q0 -124 -68.5 -190.5t-186.5 -66.5zM321 730q0 29 19.5 48.5t47.5 19.5t48 -19.5t20 -48.5q0 -27 -20 -46.5t-48 -19.5t-47.5 19.5t-19.5 46.5zM156 730q0 29 19 48.5t48 19.5 q28 0 47.5 -19.5t19.5 -48.5q0 -27 -19.5 -46.5t-47.5 -19.5t-47.5 19.5t-19.5 46.5z"/>
<glyph glyph-name="Yacute" horiz-adv-x="593" unicode="Ý" d="M351 669h-122l80 122h135zM299 354l148 260h135l-223 -381v-233h-127v233l-221 381h139z"/>
<glyph glyph-name="Thorn" horiz-adv-x="552" unicode="Þ" d="M399 314q0 43 -25 67.5t-73 24.5h-115v-183h115q48 0 73 25t25 66zM309 114h-123v-114h-127v614h127v-99h123q100 0 158 -52t58 -149q0 -96 -58.5 -148t-157.5 -52z"/>
<glyph glyph-name="germandbls" horiz-adv-x="529" unicode="ß" d="M389 361q50 -17 82 -63t32 -109q0 -91 -55 -142.5t-143 -51.5q-47 0 -79 11v104q23 -9 60 -9q47 0 73 26t26 73q0 48 -31.5 74.5t-87.5 26.5h-36v101h31q38 0 59 19.5t21 57.5q0 33 -21.5 54t-57.5 21q-42 0 -64 -28.5t-22 -73.5v-452h-122v447q0 97 56.5 154.5 t150.5 57.5t145.5 -47t51.5 -122q0 -47 -19.5 -81.5t-49.5 -47.5z"/>
<glyph glyph-name="agrave" horiz-adv-x="468" unicode="à" d="M301 508h-113l-89 142h123zM300 122v32q-8 18 -30 28.5t-49 10.5q-32 0 -55.5 -14t-23.5 -41t23 -41t56 -14q27 0 49 10.5t30 28.5zM300 254v25q0 32 -26.5 51t-73.5 19q-67 0 -122 -36v107q59 37 149 37q92 0 142 -45t50 -127v-285h-119v24q-12 -12 -42.5 -22t-65.5 -10 q-70 0 -117.5 39t-47.5 106q0 63 49.5 103t123.5 40q64 0 100 -26z"/>
<glyph glyph-name="aacute" horiz-adv-x="468" unicode="á" d="M290 508h-112l79 142h123zM300 122v32q-8 18 -30 28.5t-49 10.5q-32 0 -55.5 -14t-23.5 -41t23 -41t56 -14q27 0 49 10.5t30 28.5zM300 254v25q0 32 -26.5 51t-73.5 19q-67 0 -122 -36v107q59 37 149 37q92 0 142 -45t50 -127v-285h-119v24q-12 -12 -42.5 -22t-65.5 -10 q-70 0 -117.5 39t-47.5 106q0 63 49.5 103t123.5 40q64 0 100 -26z"/>
<glyph glyph-name="acircumflex" horiz-adv-x="468" unicode="â" d="M292 647l95 -145h-98l-49 69l-49 -69h-98l95 145h104zM300 122v32q-8 18 -30 28.5t-49 10.5q-32 0 -55.5 -14t-23.5 -41t23 -41t56 -14q27 0 49 10.5t30 28.5zM300 254v25q0 32 -26.5 51t-73.5 19q-67 0 -122 -36v107q59 37 149 37q92 0 142 -45t50 -127v-285h-119v24 q-12 -12 -42.5 -22t-65.5 -10q-70 0 -117.5 39t-47.5 106q0 63 49.5 103t123.5 40q64 0 100 -26z"/>
<glyph glyph-name="atilde" horiz-adv-x="468" unicode="ã" d="M312 643h71q0 -63 -21.5 -101t-64.5 -38q-24 0 -55 23t-44 23q-28 0 -30 -42h-71q0 63 21.5 101t64.5 38q24 0 55 -23t44 -23q28 0 30 42zM300 122v32q-8 18 -30 28.5t-49 10.5q-32 0 -55.5 -14t-23.5 -41t23 -41t56 -14q27 0 49 10.5t30 28.5zM300 254v25q0 32 -26.5 51 t-73.5 19q-67 0 -122 -36v107q59 37 149 37q92 0 142 -45t50 -127v-285h-119v24q-12 -12 -42.5 -22t-65.5 -10q-70 0 -117.5 39t-47.5 106q0 63 49.5 103t123.5 40q64 0 100 -26z"/>
<glyph glyph-name="adieresis" horiz-adv-x="468" unicode="ä" d="M256 570q0 28 19.5 47.5t46.5 19.5t47 -19.5t20 -47.5q0 -27 -20 -46.5t-47 -19.5t-46.5 19.5t-19.5 46.5zM92 570q0 28 19.5 47.5t47.5 19.5q27 0 46.5 -19.5t19.5 -47.5q0 -27 -19.5 -46.5t-46.5 -19.5q-28 0 -47.5 19.5t-19.5 46.5zM300 122v32q-8 18 -30 28.5 t-49 10.5q-32 0 -55.5 -14t-23.5 -41t23 -41t56 -14q27 0 49 10.5t30 28.5zM300 254v25q0 32 -26.5 51t-73.5 19q-67 0 -122 -36v107q59 37 149 37q92 0 142 -45t50 -127v-285h-119v24q-12 -12 -42.5 -22t-65.5 -10q-70 0 -117.5 39t-47.5 106q0 63 49.5 103t123.5 40 q64 0 100 -26z"/>
<glyph glyph-name="aring" horiz-adv-x="468" unicode="å" d="M280 584q0 16 -12 28t-28 12t-27.5 -11.5t-11.5 -28.5q0 -16 11.5 -27.5t27.5 -11.5q17 0 28.5 11.5t11.5 27.5zM339 584q0 -41 -28.5 -69t-70.5 -28t-70.5 28t-28.5 69t28.5 69t70.5 28t70.5 -28t28.5 -69zM300 122v32q-8 18 -30 28.5t-49 10.5q-32 0 -55.5 -14 t-23.5 -41t23 -41t56 -14q27 0 49 10.5t30 28.5zM300 254v25q0 32 -26.5 51t-73.5 19q-67 0 -122 -36v107q59 37 149 37q92 0 142 -45t50 -127v-285h-119v24q-12 -12 -42.5 -22t-65.5 -10q-70 0 -117.5 39t-47.5 106q0 63 49.5 103t123.5 40q64 0 100 -26z"/>
<glyph glyph-name="ae" horiz-adv-x="724" unicode="æ" d="M502 359q-33 0 -57.5 -21.5t-33.5 -63.5h171q-2 37 -23.5 61t-56.5 24zM212 87q65 0 87 51v55h-80q-33 0 -55 -12.5t-22 -39.5q0 -26 20.5 -40t49.5 -14zM519 -10q-106 0 -167 63q-67 -62 -159 -62q-70 0 -118 38.5t-48 101.5q0 66 51.5 104.5t129.5 38.5h91v9 q-2 31 -28 49t-71 18q-64 0 -122 -37v107q59 37 147 37q98 0 143 -58q53 58 132 58q94 0 145 -61t51 -163v-40h-287q8 -51 42.5 -76t85.5 -25q68 0 129 39v-102q-53 -39 -147 -39z"/>
<glyph glyph-name="ccedilla" horiz-adv-x="405" unicode="ç" d="M238 -186h-110l70 139h114zM26 223q0 106 64.5 170t161.5 64q76 0 121 -35v-113q-44 40 -106 40q-51 0 -84.5 -34t-33.5 -92t33.5 -92t84.5 -34q60 0 106 40v-112q-45 -35 -121 -35q-97 0 -161.5 64t-64.5 169z"/>
<glyph glyph-name="egrave" horiz-adv-x="460" unicode="è" d="M239 358q-69 0 -90 -82h169q-2 37 -22.5 59.5t-56.5 22.5zM303 508h-113l-89 142h123zM433 195h-288q7 -52 42 -77.5t87 -25.5q67 0 128 39v-102q-53 -39 -147 -39q-103 0 -166 62t-63 168q0 105 59 171t151 66q95 0 146 -60t51 -162v-40z"/>
<glyph glyph-name="eacute" horiz-adv-x="460" unicode="é" d="M239 358q-69 0 -90 -82h169q-2 37 -22.5 59.5t-56.5 22.5zM292 508h-112l79 142h123zM433 195h-288q7 -52 42 -77.5t87 -25.5q67 0 128 39v-102q-53 -39 -147 -39q-103 0 -166 62t-63 168q0 105 59 171t151 66q95 0 146 -60t51 -162v-40z"/>
<glyph glyph-name="ecircumflex" horiz-adv-x="460" unicode="ê" d="M239 358q-69 0 -90 -82h169q-2 37 -22.5 59.5t-56.5 22.5zM294 647l95 -145h-98l-49 69l-49 -69h-98l95 145h104zM433 195h-288q7 -52 42 -77.5t87 -25.5q67 0 128 39v-102q-53 -39 -147 -39q-103 0 -166 62t-63 168q0 105 59 171t151 66q95 0 146 -60t51 -162v-40z"/>
<glyph glyph-name="edieresis" horiz-adv-x="460" unicode="ë" d="M239 358q-69 0 -90 -82h169q-2 37 -22.5 59.5t-56.5 22.5zM258 570q0 28 19.5 47.5t46.5 19.5t47 -19.5t20 -47.5q0 -27 -20 -46.5t-47 -19.5t-46.5 19.5t-19.5 46.5zM94 570q0 28 19.5 47.5t47.5 19.5q27 0 46.5 -19.5t19.5 -47.5q0 -27 -19.5 -46.5t-46.5 -19.5 q-28 0 -47.5 19.5t-19.5 46.5zM433 195h-288q7 -52 42 -77.5t87 -25.5q67 0 128 39v-102q-53 -39 -147 -39q-103 0 -166 62t-63 168q0 105 59 171t151 66q95 0 146 -60t51 -162v-40z"/>
<glyph glyph-name="igrave" horiz-adv-x="232" unicode="ì" d="M177 508h-113l-89 142h123zM178 447v-447h-124v447h124z"/>
<glyph glyph-name="iacute" horiz-adv-x="232" unicode="í" d="M178 447v-447h-124v447h124zM167 508h-112l79 142h123z"/>
<glyph glyph-name="icircumflex" horiz-adv-x="232" unicode="î" d="M178 447v-447h-124v447h124zM168 647l77 -145h-95l-34 70l-35 -70h-95l78 145h104z"/>
<glyph glyph-name="idieresis" horiz-adv-x="232" unicode="ï" d="M178 447v-447h-124v447h124zM127 570q0 28 19 47.5t47 19.5q27 0 46.5 -19.5t19.5 -47.5q0 -27 -19.5 -46.5t-46.5 -19.5q-28 0 -47 19.5t-19 46.5zM-27 570q0 28 19.5 47.5t47.5 19.5q27 0 46.5 -19.5t19.5 -47.5q0 -27 -19.5 -46.5t-46.5 -19.5q-28 0 -47.5 19.5 t-19.5 46.5z"/>
<glyph glyph-name="eth" horiz-adv-x="489" unicode="ð" d="M341 221q0 57 -25.5 92t-70.5 35t-70.5 -35t-25.5 -92t25 -91.5t71 -34.5t71 34.5t25 91.5zM137 483l-24 62l63 20q-57 47 -106 81v4h157q26 -18 61 -49l85 28l24 -62l-56 -18q123 -140 123 -315q0 -111 -60.5 -177.5t-158.5 -66.5q-97 0 -158 64.5t-61 166.5t59 166 t149 64q41 0 69 -24h4q-17 33 -73 87z"/>
<glyph glyph-name="ntilde" horiz-adv-x="505" unicode="ñ" d="M329 643h71q0 -63 -21.5 -101t-64.5 -38q-24 0 -55 23t-44 23q-28 0 -30 -42h-71q0 63 21.5 101t64.5 38q24 0 55 -23t44 -23q28 0 30 42zM54 0v447h124v-41q44 51 120 51q75 0 116.5 -45t41.5 -120v-292h-124v266q0 36 -18.5 57.5t-54.5 21.5q-29 0 -51.5 -16.5 t-29.5 -45.5v-283h-124z"/>
<glyph glyph-name="ograve" horiz-adv-x="489" unicode="ò" d="M306 508h-113l-89 142h123zM341 223q0 58 -25.5 93.5t-70.5 35.5t-70.5 -35.5t-25.5 -93.5q0 -57 25.5 -92.5t70.5 -35.5t70.5 35.5t25.5 92.5zM464 223q0 -103 -61 -168t-158 -65t-158 65t-61 168q0 104 61 169t158 65t158 -65t61 -169z"/>
<glyph glyph-name="oacute" horiz-adv-x="489" unicode="ó" d="M341 223q0 58 -25.5 93.5t-70.5 35.5t-70.5 -35.5t-25.5 -93.5q0 -57 25.5 -92.5t70.5 -35.5t70.5 35.5t25.5 92.5zM464 223q0 -103 -61 -168t-158 -65t-158 65t-61 168q0 104 61 169t158 65t158 -65t61 -169zM295 508h-112l79 142h123z"/>
<glyph glyph-name="ocircumflex" horiz-adv-x="489" unicode="ô" d="M341 223q0 58 -25.5 93.5t-70.5 35.5t-70.5 -35.5t-25.5 -93.5q0 -57 25.5 -92.5t70.5 -35.5t70.5 35.5t25.5 92.5zM464 223q0 -103 -61 -168t-158 -65t-158 65t-61 168q0 104 61 169t158 65t158 -65t61 -169zM297 647l95 -145h-98l-49 69l-49 -69h-98l95 145h104z"/>
<glyph glyph-name="otilde" horiz-adv-x="489" unicode="õ" d="M317 643h71q0 -63 -21.5 -101t-64.5 -38q-24 0 -55 23t-44 23q-28 0 -30 -42h-71q0 63 21.5 101t64.5 38q24 0 55 -23t44 -23q28 0 30 42zM341 223q0 58 -25.5 93.5t-70.5 35.5t-70.5 -35.5t-25.5 -93.5q0 -57 25.5 -92.5t70.5 -35.5t70.5 35.5t25.5 92.5zM464 223 q0 -103 -61 -168t-158 -65t-158 65t-61 168q0 104 61 169t158 65t158 -65t61 -169z"/>
<glyph glyph-name="odieresis" horiz-adv-x="489" unicode="ö" d="M341 223q0 58 -25.5 93.5t-70.5 35.5t-70.5 -35.5t-25.5 -93.5q0 -57 25.5 -92.5t70.5 -35.5t70.5 35.5t25.5 92.5zM464 223q0 -103 -61 -168t-158 -65t-158 65t-61 168q0 104 61 169t158 65t158 -65t61 -169zM261 570q0 28 19.5 47.5t46.5 19.5t47 -19.5t20 -47.5 q0 -27 -20 -46.5t-47 -19.5t-46.5 19.5t-19.5 46.5zM97 570q0 28 19.5 47.5t47.5 19.5q27 0 46.5 -19.5t19.5 -47.5q0 -27 -19.5 -46.5t-46.5 -19.5q-28 0 -47.5 19.5t-19.5 46.5z"/>
<glyph glyph-name="divide" d="M189 126q0 29 21 49.5t50 20.5t50 -20.5t21 -49.5t-21 -50t-50 -21t-50 21t-21 50zM189 472q0 29 21 50t50 21t50 -21t21 -50t-21 -49.5t-50 -20.5t-50 20.5t-21 49.5zM44 251v96h432v-96h-432z" unicode="÷"/>
<glyph glyph-name="oslash" horiz-adv-x="499" unicode="ø" d="M152 223q0 -33 9 -59l142 172q-23 17 -53 17q-46 0 -72 -36t-26 -94zM348 223q0 31 -10 61l-142 -174q22 -17 54 -17q45 0 71.5 36.5t26.5 93.5zM34 9l47 58q-50 63 -50 156q0 104 61 169t158 65q69 0 123 -35l41 50l48 -36l-45 -55q52 -63 52 -158q0 -103 -61 -168 t-158 -65q-72 0 -124 35l-43 -53z"/>
<glyph glyph-name="ugrave" horiz-adv-x="503" unicode="ù" d="M313 508h-113l-89 142h123zM450 447v-447h-124v41q-46 -51 -120 -51t-115.5 45t-41.5 120v292h124v-267q0 -37 18 -58t54 -21q29 0 51 16.5t29 45.5v284h125z"/>
<glyph glyph-name="uacute" horiz-adv-x="503" unicode="ú" d="M450 447v-447h-124v41q-46 -51 -120 -51t-115.5 45t-41.5 120v292h124v-267q0 -37 18 -58t54 -21q29 0 51 16.5t29 45.5v284h125zM303 508h-112l79 142h123z"/>
<glyph glyph-name="ucircumflex" horiz-adv-x="503" unicode="û" d="M450 447v-447h-124v41q-46 -51 -120 -51t-115.5 45t-41.5 120v292h124v-267q0 -37 18 -58t54 -21q29 0 51 16.5t29 45.5v284h125zM304 647l95 -145h-98l-49 69l-49 -69h-98l95 145h104z"/>
<glyph glyph-name="udieresis" horiz-adv-x="503" unicode="ü" d="M450 447v-447h-124v41q-46 -51 -120 -51t-115.5 45t-41.5 120v292h124v-267q0 -37 18 -58t54 -21q29 0 51 16.5t29 45.5v284h125zM268 570q0 28 19.5 47.5t46.5 19.5t47 -19.5t20 -47.5q0 -27 -20 -46.5t-47 -19.5t-46.5 19.5t-19.5 46.5zM104 570q0 28 19.5 47.5 t47.5 19.5q27 0 46.5 -19.5t19.5 -47.5q0 -27 -19.5 -46.5t-46.5 -19.5q-28 0 -47.5 19.5t-19.5 46.5z"/>
<glyph glyph-name="yacute" horiz-adv-x="487" unicode="ý" d="M297 508h-112l79 142h123zM241 -165h-122l65 163l-171 449h131l103 -297l102 297h125z"/>
<glyph glyph-name="thorn" horiz-adv-x="519" unicode="þ" d="M178 297v-147q11 -23 34 -37.5t50 -14.5q49 0 78 35t29 90t-29 90.5t-78 35.5q-27 0 -49.5 -14.5t-34.5 -37.5zM178 37v-202h-124v815h124v-240q16 19 47 33t65 14q94 0 149 -67.5t55 -166.5t-55 -166t-149 -67q-34 0 -65 14t-47 33z"/>
</font>
</defs>
</svg>
